<svg width="400" height="450" xmlns="http://www.w3.org/2000/svg" xmlns:xlink="http://www.w3.org/1999/xlink">
 <g>
  <title>background</title>
  <rect fill="none" id="canvas_background" height="452" width="402" y="-1" x="-1"/>
 </g>
 <g>
  <title>Layer 1</title>
  <g id="svg_1">
   <defs>
    <rect height="841.89" width="595.276" y="-173.528" x="-95" id="SVGID_1_"/>
   </defs>
   <clipPath id="SVGID_2_">
    <use id="svg_2" xlink:href="#SVGID_1_"/>
   </clipPath>
   <path id="svg_3" d="m117.73,42.54l0,16.759l1.667,0c26.239,0 52.478,0 78.716,0.001c1.653,0 1.654,0 1.654,1.705c0.001,11.959 0.001,23.919 0.001,35.878c0,1.576 -0.003,1.577 -1.55,1.577c-26.078,0 -52.156,0 -78.235,-0.001l-2.224,0l0,17.224l1.449,0c32.278,0 64.556,-0.001 96.834,0.003c1.868,0 1.715,-0.239 1.715,1.75c0.002,13.28 -0.014,26.559 0.024,39.838c0.004,1.139 -0.283,1.468 -1.45,1.467c-50.957,-0.029 -101.914,-0.025 -152.871,-0.025l-1.426,0c-0.029,-0.513 -0.075,-0.938 -0.075,-1.362c-0.002,-51.997 0.002,-103.993 -0.027,-155.99c-0.001,-1.154 0.369,-1.382 1.433,-1.381c50.717,0.021 101.434,0.017 152.151,0.017c1.556,0 1.56,0.003 1.561,1.58c0.001,13.159 -0.018,26.318 0.029,39.478c0.004,1.256 -0.388,1.507 -1.568,1.506c-32.038,-0.031 -64.076,-0.024 -96.114,-0.024l-1.694,0z" fill="#ffffff" clip-path="url(#SVGID_2_)"/>
   <path id="svg_4" d="m293.012,259.489c0.394,2.718 0.836,5.389 1.155,8.074c0.425,3.561 0.911,7.123 1.098,10.698c1.066,20.501 0.258,41.02 0.501,61.528c0.018,1.55 0.001,1.551 -1.577,1.551c-17.038,0.001 -34.076,0.001 -51.115,0c-1.601,0 -1.602,-0.002 -1.603,-1.652l0,-152.625c0,-1.553 0.001,-1.557 1.587,-1.557c17.198,-0.001 34.396,0.009 51.595,-0.025c1.064,-0.003 1.641,0.344 2.174,1.248c14.032,23.727 28.093,47.437 42.146,71.152c2.607,4.399 5.214,8.798 7.799,13.211c0.44,0.751 0.935,1.184 1.988,0.701c-0.28,-1.512 -0.624,-3.052 -0.843,-4.609c-0.947,-6.742 -2.024,-13.472 -2.742,-20.238c-1.154,-10.874 -0.705,-21.802 -0.743,-32.71c-0.031,-9.119 0.018,-18.238 -0.03,-27.356c-0.006,-1.135 0.338,-1.396 1.415,-1.394c17.158,0.029 34.316,0.031 51.475,-0.004c1.161,-0.003 1.474,0.328 1.473,1.48c-0.026,50.995 -0.025,101.99 -0.001,152.985c0,1.091 -0.28,1.421 -1.404,1.418c-17.238,-0.035 -34.477,-0.033 -51.715,-0.002c-0.942,0.002 -1.423,-0.341 -1.889,-1.104c-10.318,-16.873 -20.659,-33.73 -30.995,-50.593c-6.014,-9.812 -12.026,-19.624 -18.037,-29.438c-0.363,-0.592 -0.682,-1.23 -1.712,-0.739" fill="#ffffff" clip-path="url(#SVGID_2_)"/>
   <path id="svg_5" d="m352.028,-0.561c15.563,43.741 31.083,87.358 46.603,130.976c0.062,-0.022 0.123,-0.043 0.184,-0.065l0,-130.911l-46.787,0z" fill="#ffffff" clip-path="url(#SVGID_2_)"/>
   <path id="svg_6" d="m240.771,130.366c0.064,0.013 0.129,0.026 0.192,0.039c15.116,-43.61 30.232,-87.219 45.392,-130.954l-45.584,0l0,130.915z" fill="#ffffff" clip-path="url(#SVGID_2_)"/>
   <path id="svg_7" d="m342.305,139.452c-0.275,-0.973 -0.664,-1.293 -1.694,-1.29c-13.92,0.039 -27.839,0.026 -41.759,0.026l-1.28,0c-1.962,7.229 -3.91,14.413 -5.888,21.701l56.494,0c-0.067,-0.286 -0.104,-0.478 -0.157,-0.664c-1.913,-6.589 -3.849,-13.171 -5.716,-19.773" fill="#ffffff" clip-path="url(#SVGID_2_)"/>
   <path id="svg_8" d="m330.884,95.388c-4.09,-13.853 -7.816,-27.791 -9.859,-42.122c-0.127,-0.889 -0.672,-0.812 -1.286,-0.821c-0.675,-0.011 -1.161,-0.015 -1.327,0.914c-1.103,6.202 -2.068,12.44 -3.495,18.57c-1.6,6.867 -3.627,13.634 -5.491,20.439c-0.883,3.223 -1.818,6.431 -2.751,9.716l26.114,0c-0.664,-2.334 -1.263,-4.522 -1.905,-6.696" fill="#ffffff" clip-path="url(#SVGID_2_)"/>
   <path id="svg_9" d="m125.2,446.865c-1.674,0 -3.192,0.046 -4.703,-0.041c-0.289,-0.018 -0.739,-0.522 -0.793,-0.856c-1.226,-7.492 -2.407,-14.991 -3.594,-22.49c-1.705,-10.771 -3.409,-21.541 -5.114,-32.312l-0.309,-0.009c-1.139,18.523 -2.278,37.048 -3.421,55.637l-8.274,0c2.108,-29.2 4.211,-58.329 6.326,-87.627c2.441,0 4.825,-0.021 7.207,0.035c0.228,0.006 0.599,0.476 0.644,0.77c1.312,8.572 2.588,17.148 3.874,25.724c1.654,11.024 3.31,22.051 4.969,33.075c0.097,0.65 0.22,1.296 0.575,1.949c0.081,-0.241 0.2,-0.479 0.238,-0.727c2.65,-17.341 5.294,-34.684 7.938,-52.024c0.404,-2.647 0.785,-5.298 1.246,-7.935c0.057,-0.329 0.536,-0.824 0.832,-0.834c2.275,-0.069 4.552,-0.038 7.028,-0.038c2.11,29.211 4.216,58.369 6.328,87.623l-8.276,0c-1.14,-18.565 -2.279,-37.095 -3.417,-55.624c-0.101,-0.01 -0.203,-0.021 -0.304,-0.03c-2.993,18.533 -5.985,37.065 -9,55.734" fill="#ffffff" clip-path="url(#SVGID_2_)"/>
   <path id="svg_10" d="m223.549,446.99l0,-87.765c0.452,-0.022 0.876,-0.062 1.299,-0.063c3.68,-0.005 7.359,0.05 11.037,-0.015c5.921,-0.104 10.311,2.573 13.686,7.257c3.044,4.222 4.19,9.115 4.979,14.104c1.583,10.033 1.816,20.148 1.254,30.264c-0.314,5.654 -0.991,11.299 -1.738,16.917c-0.452,3.403 -1.499,6.695 -3.058,9.798c-2.614,5.203 -6.723,8.513 -12.539,9.049c-4.916,0.454 -9.886,0.323 -14.92,0.454m8.822,-9.037c5.603,0.157 9.282,-1.927 11.138,-6.663c1.729,-4.415 2.31,-9.057 2.626,-13.721c0.758,-11.185 0.897,-22.373 -0.432,-33.532c-0.393,-3.296 -0.99,-6.556 -2.385,-9.613c-1.846,-4.047 -5.639,-6.483 -10.947,-5.813l0,69.342z" fill="#ffffff" clip-path="url(#SVGID_2_)"/>
   <path id="svg_11" d="m365.559,446.748l0,-87.388c0.123,-0.072 0.188,-0.145 0.255,-0.145c4.798,0.003 9.608,-0.21 14.39,0.08c4.963,0.302 8.564,3.182 11.411,7.116c2.8,3.87 3.981,8.34 4.769,12.926c1.728,10.059 2.023,20.213 1.5,30.371c-0.304,5.897 -0.961,11.787 -1.725,17.645c-0.507,3.885 -1.681,7.643 -3.633,11.102c-2.909,5.157 -7.417,7.907 -13.226,8.275c-4.383,0.276 -8.795,0.103 -13.194,0.124c-0.153,0 -0.306,-0.059 -0.547,-0.106m8.85,-8.81c5.733,0.524 9.791,-2.322 11.673,-8.119c1.38,-4.254 1.873,-8.667 2.155,-13.094c0.641,-10.066 0.747,-20.139 -0.215,-30.193c-0.393,-4.101 -0.938,-8.182 -2.622,-12.006c-1.917,-4.351 -6.354,-6.761 -10.991,-5.916l0,69.328z" fill="#ffffff" clip-path="url(#SVGID_2_)"/>
   <path id="svg_12" d="m308.039,446.861c-2.957,0 -5.752,0.032 -8.543,-0.046c-0.298,-0.009 -0.738,-0.616 -0.841,-1.017c-1.827,-7.156 -3.614,-14.323 -5.405,-21.489c-1.472,-5.887 -2.929,-11.777 -4.42,-17.66c-0.092,-0.36 -0.427,-0.658 -0.647,-0.986c-0.125,0.373 -0.36,0.745 -0.36,1.118c-0.02,12.755 -0.017,25.511 -0.017,38.267l0,1.733l-8.702,0l0,-87.62c0.653,0 1.28,-0.001 1.906,0c3.56,0.006 7.119,-0.05 10.676,0.03c6.202,0.141 10.364,3.158 12.559,8.969c1.593,4.219 1.995,8.623 2.012,13.08c0.017,4.684 -0.171,9.354 -1.515,13.893c-1.14,3.85 -3.458,6.826 -6.85,8.909c-0.891,0.547 -0.938,1.02 -0.702,1.901c3.557,13.267 7.081,26.541 10.611,39.814c0.081,0.306 0.134,0.618 0.238,1.104m-20.146,-78.251l0,28.786c4.409,0.363 7.828,-2.095 8.907,-6.406c1.021,-4.082 1.033,-8.24 0.586,-12.382c-0.204,-1.882 -0.628,-3.799 -1.318,-5.557c-1.322,-3.354 -4.62,-5.046 -8.175,-4.441" fill="#ffffff" clip-path="url(#SVGID_2_)"/>
   <path id="svg_13" d="m200.968,446.86c-2.591,0 -5.179,0.024 -7.765,-0.039c-0.247,-0.006 -0.646,-0.532 -0.692,-0.857c-0.694,-4.905 -1.338,-9.817 -1.998,-14.727c-0.079,-0.59 -0.183,-1.176 -0.293,-1.875l-2.075,0c-3.598,-0.001 -7.196,0.019 -10.794,-0.017c-0.781,-0.008 -1.139,0.208 -1.251,1.023c-0.702,5.105 -1.464,10.202 -2.161,15.308c-0.117,0.861 -0.369,1.241 -1.324,1.214c-2.389,-0.069 -4.782,-0.023 -7.317,-0.023c0.361,-2.284 0.69,-4.437 1.04,-6.587c1.726,-10.563 3.462,-21.126 5.186,-31.69c2.052,-12.575 4.094,-25.152 6.143,-37.728c0.585,-3.588 1.199,-7.17 1.749,-10.763c0.105,-0.683 0.308,-0.969 1.034,-0.952c1.838,0.043 3.678,0.035 5.517,0.003c0.663,-0.012 0.864,0.248 0.967,0.885c1.645,10.215 3.319,20.423 4.986,30.632c1.969,12.063 3.937,24.125 5.905,36.188c1.061,6.505 2.119,13.009 3.175,19.514c0.018,0.111 -0.013,0.23 -0.032,0.491m-17.72,-67.518c-0.104,-0.004 -0.208,-0.009 -0.312,-0.013c-1.794,13.775 -3.588,27.552 -5.386,41.362l11.439,0c-1.926,-13.866 -3.833,-27.607 -5.741,-41.349" fill="#ffffff" clip-path="url(#SVGID_2_)"/>
   <rect id="svg_14" height="87.55" width="8.661" fill="#ffffff" clip-path="url(#SVGID_2_)" y="359.222" x="330.838"/>
   <path id="svg_58" d="m107.554,314.006l0,32.392l-3.974,0c-0.452,-2.548 -0.937,-5.094 -1.353,-7.651c-0.84,-5.166 -1.655,-10.336 -2.449,-15.51c-0.112,-0.734 -0.382,-1.034 -1.15,-0.988c-1.032,0.062 -2.07,0.014 -3.223,0.014c-0.071,0.72 -0.161,1.345 -0.191,1.973c-0.263,5.505 0.654,10.913 1.273,16.354c0.565,4.958 0.87,9.948 1.176,14.932c0.113,1.834 -0.034,1.844 -1.836,1.844c-2.233,0.001 -4.465,0 -6.826,0c0.175,2.12 0.329,4.099 0.504,6.076c0.507,5.734 1.032,11.467 1.525,17.203c0.055,0.629 0.005,1.279 -0.09,1.905c-0.187,1.221 -0.871,2.058 -2.113,2.313c-1.27,0.261 -2.473,0.026 -3.185,-1.116c-0.626,-1.005 -1.095,-2.127 -1.504,-3.245c-2.437,-6.672 -3.821,-13.604 -4.967,-20.588c-2.009,-12.243 -3.01,-24.595 -3.892,-36.958c-0.07,-0.996 -0.195,-1.987 -0.305,-2.979c-0.012,-0.111 -0.094,-0.214 -0.217,-0.478c-1.481,0.493 -2.969,0.987 -4.558,1.516c0.46,2.43 0.95,4.769 1.34,7.123c3.091,18.657 7.918,36.945 11.742,55.445c0.905,4.379 1.53,8.815 2.239,13.232c0.138,0.86 0.148,1.761 0.071,2.63c-0.12,1.368 -1.083,1.988 -2.274,1.254c-1.543,-0.951 -3.093,-2.039 -4.29,-3.381c-5.268,-5.907 -10.734,-11.681 -15.537,-17.952c-16.713,-21.826 -32.093,-44.562 -45.357,-68.669c-5.11,-9.289 -9.478,-18.925 -12.594,-29.091c-2.416,-7.878 -3.547,-15.916 -2.897,-24.146c1.096,-13.888 7.218,-25.179 17.871,-34.062c8.027,-6.693 17.208,-11.312 27.039,-14.654c4.947,-1.682 10.008,-3.031 15.037,-4.466c0.781,-0.224 1.049,-0.51 0.95,-1.297c-0.151,-1.189 -0.15,-2.4 -0.345,-3.58c-0.277,-1.679 0.431,-2.825 1.684,-3.826c0.763,-0.609 1.476,-1.315 2.089,-2.077c5.199,-6.455 11.785,-10.473 20.099,-11.381c11.64,-1.27 23.31,-1.339 34.981,-0.563c7.499,0.498 15.001,1.019 22.479,1.757c12.465,1.229 24.805,3.247 36.799,6.966c6.645,2.061 12.764,5.255 18.496,9.203c0.905,0.622 1.927,1.127 2.961,1.498c5.95,2.134 11.611,4.769 16.257,9.196c3.972,3.784 6.345,8.368 6.828,13.878c0.324,3.701 -0.686,7.125 -2.178,10.441c-2,4.447 -4.813,8.371 -7.828,12.169c-0.433,0.545 -0.781,1.207 -0.991,1.872c-3.544,11.221 -9.863,20.729 -17.985,29.108c-11.741,12.112 -25.822,20.687 -41.296,27.126c-11.288,4.696 -23.001,7.788 -35.174,8.958c-3.769,0.363 -7.588,0.202 -11.384,0.278c-0.396,0.008 -0.793,0.002 -1.477,0.002m-36.865,-110.053c0.279,1.686 0.578,3.184 0.764,4.695c0.244,1.983 0.354,3.983 0.601,5.966c0.982,7.89 1.931,15.785 3.012,23.662c1.418,10.332 2.992,20.644 4.417,30.975c1.387,10.054 2.703,20.119 3.975,30.188c0.264,2.098 0.63,4.113 1.903,5.836c0.285,0.387 0.846,0.772 1.302,0.8c6.304,0.38 12.612,0.714 18.921,1.008c0.772,0.036 1.593,-0.115 2.33,-0.362c6.476,-2.161 12.911,-4.451 19.411,-6.537c13.876,-4.451 27.343,-9.854 40.192,-16.765c13.661,-7.347 26.325,-16.072 37.445,-26.942c0.499,-0.487 0.929,-1.105 1.212,-1.741c2.955,-6.646 4.271,-13.625 4.027,-20.884c-0.185,-5.477 -1.124,-10.814 -3.499,-15.806c-3.629,-7.628 -9.649,-12.963 -16.843,-17.038c-2.402,-1.36 -5.018,-2.724 -7.687,-3.153c-5.789,-0.932 -11.664,-1.45 -17.523,-1.801c-15.399,-0.922 -30.773,-0.346 -46.128,1.076c-13.537,1.254 -27.021,2.876 -40.393,5.357c-2.576,0.475 -5.141,1.011 -7.439,1.466m-6.973,1.597c-2.324,0.624 -4.488,1.174 -6.635,1.786c-10.459,2.981 -20.524,6.88 -29.649,12.921c-7.832,5.185 -14.368,11.597 -18.586,20.108c-5.257,10.605 -5.945,21.78 -3.744,33.222c1.716,8.924 5.078,17.301 8.917,25.496c6.355,13.564 13.987,26.409 22.196,38.911c8.864,13.497 17.552,27.136 27.819,39.638c5.3,6.454 10.977,12.6 16.537,18.837c0.924,1.036 2.122,1.827 3.194,2.731c0.097,-0.076 0.194,-0.152 0.291,-0.229c0,-0.501 0.075,-1.016 -0.011,-1.501c-1.259,-7.076 -2.397,-14.179 -3.849,-21.216c-2.107,-10.209 -4.49,-20.36 -6.665,-30.556c-0.983,-4.608 -1.749,-9.264 -2.613,-13.897c0.07,2.364 0.336,4.701 0.507,7.045c0.03,0.413 -0.339,0.854 -0.525,1.282c-0.345,-0.301 -0.887,-0.539 -1.006,-0.912c-1.111,-3.496 -2.213,-6.998 -3.183,-10.536c-0.534,-1.944 -0.81,-3.961 -1.219,-6.029c-0.549,0.153 -0.966,0.261 -1.378,0.389c-9.318,2.887 -18.748,5.325 -28.36,7.022c-0.495,0.087 -1.223,0.456 -1.29,-0.453c-0.019,-0.255 0.514,-0.737 0.854,-0.804c9.667,-1.854 19.083,-4.661 28.491,-7.496c0.442,-0.134 0.876,-0.292 1.397,-0.467c-0.774,-3.925 -1.277,-7.79 -2.311,-11.508c-5.266,-18.93 -10.669,-37.822 -16.023,-56.727c-0.119,-0.422 -0.302,-0.848 -0.305,-1.272c-0.001,-0.24 0.264,-0.623 0.481,-0.685c0.207,-0.059 0.572,0.16 0.751,0.36c0.171,0.19 0.2,0.513 0.278,0.781c4.426,15.224 8.862,30.444 13.266,45.675c0.983,3.4 1.854,6.833 2.777,10.252c0.145,0.012 0.29,0.024 0.435,0.037c0.068,-0.438 0.276,-0.908 0.182,-1.307c-0.694,-2.955 -1.445,-5.896 -2.183,-8.839c-5.503,-21.969 -11.004,-43.938 -16.512,-65.904c-0.865,-3.447 -1.764,-6.886 -2.653,-10.328c-0.165,-0.638 -0.264,-1.299 0.662,-1.222c0.272,0.023 0.596,0.587 0.729,0.962c2.006,5.644 4.166,11.24 5.933,16.957c5.362,17.339 9.469,35.001 13.304,52.729c1.039,4.803 2.016,9.619 3.062,14.419c0.078,0.364 0.487,0.941 0.732,0.936c1.589,-0.034 3.174,-0.203 4.872,-0.336c-0.057,-0.505 -0.091,-0.894 -0.147,-1.278c-0.915,-6.247 -1.897,-12.485 -2.736,-18.742c-1.498,-11.178 -1.321,-22.413 -1.14,-33.654c0.063,-3.938 -0.256,-7.905 -0.724,-11.821c-0.956,-8.012 -2.176,-15.993 -3.197,-23.998c-0.449,-3.523 -0.678,-7.073 -1.023,-10.779m6.551,-3.243c6.804,-1.15 13.513,-2.4 20.261,-3.393c6.798,-0.999 13.622,-1.854 20.456,-2.567c6.796,-0.709 13.611,-1.319 20.434,-1.686c6.863,-0.368 13.748,-0.553 20.621,-0.505c6.772,0.047 13.541,0.487 20.555,0.765c-0.578,-0.154 -0.919,-0.256 -1.264,-0.334c-12.659,-2.885 -25.525,-4.319 -38.444,-5.278c-12.652,-0.94 -25.324,-1.233 -37.99,-0.233c-3.775,0.298 -7.576,0.676 -11.274,1.452c-4.787,1.004 -8.917,3.268 -11.492,7.719c-0.275,0.477 -0.632,0.984 -1.083,1.267c-1.151,0.721 -1.167,1.673 -0.78,2.793m41.112,104.779c0.019,0.084 0.038,0.168 0.058,0.251c0.383,0 0.767,0.001 1.151,0c8.17,-0.022 16.152,-1.388 24.026,-3.45c13.881,-3.636 26.722,-9.653 38.845,-17.241c8.653,-5.416 16.621,-11.68 23.088,-19.667c1.738,-2.146 3.275,-4.455 4.903,-6.689c-0.094,-0.074 -0.188,-0.15 -0.282,-0.225c-0.29,0.258 -0.575,0.521 -0.871,0.772c-2.776,2.353 -5.485,4.789 -8.341,7.039c-15.486,12.201 -32.698,21.361 -51.065,28.325c-10.001,3.791 -20.23,6.982 -30.356,10.447c-0.389,0.135 -0.771,0.292 -1.156,0.438m104.749,-63.352c0.267,-0.194 0.382,-0.243 0.446,-0.329c2.705,-3.632 5.117,-7.43 6.651,-11.727c2.248,-6.301 1.191,-12.121 -2.655,-17.469c-3.021,-4.2 -7.224,-6.942 -11.803,-9.161c-1.206,-0.584 -2.447,-1.097 -3.672,-1.641c11.218,11.371 13.895,25.016 11.033,40.327m-147.266,-0.458c0.114,0.013 0.226,0.026 0.34,0.038c0.345,-3.807 2.012,-7.087 3.858,-10.502c0.596,7.795 1.045,15.372 1.791,22.92c0.743,7.511 1.784,14.991 2.695,22.485c0.159,-0.018 0.317,-0.037 0.476,-0.054c-0.224,-2.538 -0.423,-5.078 -0.677,-7.612c-0.753,-7.514 -1.519,-15.025 -2.296,-22.536c-0.755,-7.31 -1.456,-14.626 -2.316,-21.923c-0.753,-6.382 -1.715,-12.739 -2.546,-19.111c-0.373,-2.854 -0.331,-2.859 -3.216,-2.169c-1.893,0.453 -2.119,0.77 -1.924,2.678c1.027,10.056 2.045,20.112 3.086,30.166c0.195,1.879 0.484,3.747 0.729,5.62m14.121,113.54c0.722,8.085 1.436,16.067 2.159,24.16c1.771,-0.522 3.4,-1.003 5.061,-1.492c-0.056,-0.276 -0.07,-0.434 -0.12,-0.578c-2.239,-6.406 -3.398,-13.058 -4.44,-19.73c-0.326,-2.094 -0.281,-2.101 -2.66,-2.36m-33.596,-118.721c-0.112,0.022 -0.223,0.044 -0.335,0.067c5.068,20.101 10.136,40.203 15.204,60.305c0.107,-0.027 0.215,-0.055 0.322,-0.081c-4.246,-20.303 -8.761,-40.538 -15.191,-60.291m20.495,81.322c1.49,-0.469 2.826,-0.853 4.127,-1.33c0.255,-0.095 0.562,-0.576 0.529,-0.841c-0.189,-1.529 -0.472,-3.047 -0.748,-4.714c-1.739,0.285 -3.366,0.551 -5.095,0.834c0.408,2.078 0.782,3.982 1.187,6.051m131.918,-117.958c-6.38,-2.649 -13.136,-3.752 -19.896,-4.837c-0.026,0.104 -0.052,0.208 -0.078,0.313c6.658,1.509 13.316,3.017 19.974,4.524m13.335,45.25c-0.087,-0.075 -0.175,-0.152 -0.262,-0.227c-3.026,3.33 -6.054,6.659 -9.08,9.988l0.267,0.235c3.157,-3.215 6.373,-6.378 9.075,-9.996m-149.596,67.033c0.528,2.321 1.005,4.422 1.483,6.522c0.812,-1.082 -0.375,-6.145 -1.483,-6.522m33.283,-3.48c0.036,0.116 0.072,0.232 0.107,0.348c2.92,-0.903 5.84,-1.806 8.759,-2.709c-0.057,-0.18 -0.113,-0.357 -0.169,-0.537c-2.899,0.967 -5.798,1.932 -8.697,2.898m-32.093,2.954c0.142,-0.017 0.283,-0.033 0.424,-0.049c-0.409,-1.926 -0.818,-3.852 -1.228,-5.778c-0.148,0.032 -0.296,0.063 -0.445,0.094c0.417,1.911 0.833,3.821 1.249,5.733m1.271,8.677c-0.199,0.036 -0.397,0.075 -0.596,0.113c0.408,1.815 0.816,3.631 1.224,5.448c0.094,-0.018 0.189,-0.035 0.283,-0.053c-0.303,-1.835 -0.607,-3.672 -0.911,-5.508m-0.175,-8.945c0.114,-0.012 0.227,-0.024 0.341,-0.037c-0.393,-1.933 -0.786,-3.865 -1.179,-5.798c-0.093,0.02 -0.187,0.039 -0.28,0.058l1.118,5.777zm-3.654,-3.414c-0.178,0.032 -0.356,0.064 -0.534,0.098c0.232,1.003 0.464,2.006 0.695,3.008c0.162,-0.035 0.324,-0.072 0.485,-0.109c-0.215,-1 -0.431,-1.998 -0.646,-2.997" fill="#ffffff" clip-path="url(#SVGID_2_)"/>
  </g>
 </g>
</svg>