<svg width="230" height="260" xmlns="http://www.w3.org/2000/svg" xmlns:xlink="http://www.w3.org/1999/xlink">
 <g>
  <title>background</title>
  <rect fill="none" id="canvas_background" height="262" width="232" y="-1" x="-1"/>
 </g>
 <g>
  <title>Layer 1</title>
  <g stroke="null" id="svg_1">
   <defs stroke="null" transform="translate(-2,0) translate(-0.46094560623168945,0) translate(0,7) translate(0,3) translate(0,14) translate(0,3) translate(0,-3) translate(0,-6) translate(0,-14) translate(0,-3) translate(0,-0.4390000104904175) translate(2.4609458446502686,-0.5609999895095825) scale(0.6291194558143616) translate(-2.4609458446502686,0.5609999895095825) translate(3.9117302894592285,-0.8917225003242493) scale(0.9037513136863708) translate(-3.9117302894592285,0.8917225003242493) translate(-0.0000010483300911801052,-1.0490413870911652e-8) scale(1.0133123397827148) translate(0.0000010483300911801052,1.0490413870911652e-8) ">
    <rect stroke="null" height="841.89" width="595.276" y="-173.528" x="-95" id="SVGID_1_"/>
   </defs>
   <clipPath stroke="null" transform="translate(-2,0) translate(-0.46094560623168945,0) translate(0,7) translate(0,3) translate(0,14) translate(0,3) translate(0,-3) translate(0,-6) translate(0,-14) translate(0,-3) translate(0,-0.4390000104904175) translate(2.4609458446502686,-0.5609999895095825) scale(0.6291194558143616) translate(-2.4609458446502686,0.5609999895095825) translate(3.9117302894592285,-0.8917225003242493) scale(0.9037513136863708) translate(-3.9117302894592285,0.8917225003242493) translate(-0.0000010483300911801052,-1.0490413870911652e-8) scale(1.0133123397827148) translate(0.0000010483300911801052,1.0490413870911652e-8) " id="SVGID_2_">
    <use stroke="null" x="-2.460946" y="0.561" id="svg_2" xlink:href="#SVGID_1_"/>
   </clipPath>
   <path stroke="null" id="svg_3" d="m66.41071,24.832059l0,9.655472l0.96042,0c15.117246,0 30.234491,0 45.351161,0.000576c0.952354,0 0.95293,0 0.95293,0.982313c0.000576,6.890016 0.000576,13.780609 0.000576,20.670625c0,0.907991 -0.001728,0.908567 -0.893012,0.908567c-15.024488,0 -30.048975,0 -45.074039,-0.000576l-1.281328,0l0,9.923375l0.834822,0c18.596534,0 37.193068,-0.000576 55.789602,0.001728c1.076223,0 0.988074,-0.137697 0.988074,1.008239c0.001152,7.651093 -0.008066,15.301609 0.013827,22.952126c0.002305,0.656219 -0.163047,0.845768 -0.835398,0.845192c-29.358188,-0.016708 -58.716375,-0.014403 -88.074563,-0.014403l-0.821571,0c-0.016708,-0.295558 -0.04321,-0.540416 -0.04321,-0.784698c-0.001152,-29.95737 0.001152,-59.914163 -0.015556,-89.871532c-0.000576,-0.664862 0.212594,-0.796221 0.825604,-0.795645c29.219915,0.012099 58.43983,0.009794 87.659744,0.009794c0.896468,0 0.898773,0.001728 0.899349,0.910296c0.000576,7.58138 -0.01037,15.16276 0.016708,22.744717c0.002305,0.723627 -0.223541,0.868238 -0.903382,0.867662c-18.458261,-0.01786 -36.916522,-0.013827 -55.374783,-0.013827l-0.975975,0z" fill="#ffffff" clip-path="url(#SVGID_2_)"/>
   <path stroke="null" id="svg_4" d="m167.397067,149.824297c0.226998,1.565939 0.48165,3.1048 0.665438,4.651726c0.244858,2.051622 0.52486,4.10382 0.632598,6.163508c0.614162,11.811374 0.148643,23.633119 0.288644,35.448527c0.01037,0.893012 0.000576,0.893588 -0.908567,0.893588c-9.816214,0.000576 -19.632427,0.000576 -29.449217,0c-0.922395,0 -0.922971,-0.001152 -0.923547,-0.951777l0,-87.932833c0,-0.89474 0.000576,-0.897045 0.914329,-0.897045c9.908396,-0.000576 19.816791,0.005185 29.725763,-0.014403c0.613009,-0.001728 0.94544,0.198191 1.252521,0.719018c8.084347,13.669991 16.185403,27.330187 24.281849,40.993264c1.501988,2.534424 3.003976,5.068849 4.493289,7.611339c0.2535,0.432679 0.538688,0.682146 1.145359,0.403872c-0.161318,-0.871118 -0.359509,-1.758369 -0.485683,-2.655413c-0.545601,-3.884312 -1.1661,-7.761711 -1.579766,-11.65985c-0.664862,-6.264908 -0.406176,-12.560928 -0.428069,-18.845425c-0.01786,-5.253789 0.01037,-10.507577 -0.017284,-15.76079c-0.003457,-0.653915 0.194734,-0.804287 0.815233,-0.803134c9.88535,0.016708 19.7707,0.01786 29.656626,-0.002305c0.668894,-0.001728 0.849225,0.188973 0.848649,0.852682c-0.01498,29.380081 -0.014403,58.760162 -0.000576,88.140242c0,0.628565 -0.161318,0.81869 -0.808896,0.816962c-9.931441,-0.020165 -19.863458,-0.019013 -29.794899,-0.001152c-0.542721,0.001152 -0.819842,-0.196463 -1.088322,-0.636055c-5.944576,-9.721151 -11.902404,-19.433084 -17.857351,-29.148474c-3.464885,-5.653051 -6.928618,-11.306103 -10.391774,-16.960306c-0.209138,-0.341073 -0.392925,-0.708648 -0.986346,-0.425765" fill="#ffffff" clip-path="url(#SVGID_2_)"/>
   <path stroke="null" id="svg_5" d="m201.398339,0c8.966412,25.200787 17.908051,50.330132 26.849689,75.460054c0.03572,-0.012675 0.070865,-0.024774 0.106009,-0.037449l0,-75.422605l-26.955698,0z" fill="#ffffff" clip-path="url(#SVGID_2_)"/>
   <path stroke="null" id="svg_6" d="m137.29912,75.431823c0.036873,0.00749 0.074322,0.01498 0.110618,0.022469c8.708879,-25.125313 17.417759,-50.250049 26.151988,-75.447379l-26.262606,0l0,75.42491z" fill="#ffffff" clip-path="url(#SVGID_2_)"/>
   <path stroke="null" id="svg_7" d="m195.796564,80.6666c-0.158438,-0.560581 -0.382555,-0.744944 -0.975975,-0.743216c-8.01982,0.022469 -16.039064,0.01498 -24.058884,0.01498l-0.737455,0c-1.13038,4.164891 -2.252694,8.303855 -3.392292,12.502738l32.548255,0c-0.038601,-0.164775 -0.059918,-0.275393 -0.090453,-0.382555c-1.102149,-3.796163 -2.217549,-7.588294 -3.293196,-11.391947" fill="#ffffff" clip-path="url(#SVGID_2_)"/>
   <path stroke="null" id="svg_8" d="m189.216509,55.279721c-2.356398,-7.981219 -4.503083,-16.011409 -5.68013,-24.268022c-0.073169,-0.512185 -0.387164,-0.467823 -0.740912,-0.473008c-0.388892,-0.006338 -0.668894,-0.008642 -0.764533,0.526589c-0.635479,3.573199 -1.19145,7.167138 -2.013597,10.698855c-0.921818,3.956329 -2.089647,7.855045 -3.163566,11.775654c-0.508729,1.856888 -1.047416,3.705134 -1.584952,5.597742l15.045229,0c-0.382555,-1.344703 -0.72766,-2.605289 -1.09754,-3.85781" fill="#ffffff" clip-path="url(#SVGID_2_)"/>
   <path stroke="null" id="svg_9" d="m70.714449,257.778449c-0.964452,0 -1.839028,0.026502 -2.70957,-0.023622c-0.166503,-0.01037 -0.425765,-0.300743 -0.456876,-0.493173c-0.706343,-4.316415 -1.386761,-8.636862 -2.070635,-12.95731c-0.982313,-6.205566 -1.964049,-12.410556 -2.946362,-18.616123l-0.178026,-0.005185c-0.656219,10.671776 -1.312439,21.344705 -1.970963,32.054506l-4.766953,0c1.214496,-16.823186 2.426111,-33.605466 3.644639,-50.485113c1.406349,0 2.779859,-0.012099 4.152216,0.020165c0.131359,0.003457 0.345106,0.274241 0.371032,0.443625c0.755891,4.938642 1.491041,9.879589 2.231953,14.820535c0.95293,6.351329 1.907012,12.704386 2.862822,19.055715c0.055885,0.374489 0.12675,0.746673 0.331278,1.12289c0.046667,-0.138849 0.115227,-0.275969 0.13712,-0.418851c1.526762,-9.990783 3.050067,-19.982718 4.573372,-29.972925c0.232759,-1.525033 0.452267,-3.052371 0.717866,-4.571643c0.03284,-0.189549 0.308809,-0.474736 0.479346,-0.480498c1.310711,-0.039753 2.622573,-0.021893 4.049087,-0.021893c1.215648,16.829523 2.428991,33.628511 3.645792,50.482808l-4.768106,0c-0.656796,-10.695974 -1.313015,-21.371783 -1.968658,-32.047017c-0.05819,-0.005761 -0.116956,-0.012099 -0.175145,-0.017284c-1.724377,10.677538 -3.448177,21.354499 -5.185228,32.110392" fill="#ffffff" clip-path="url(#SVGID_2_)"/>
   <path stroke="null" id="svg_10" d="m127.376898,257.850466l0,-50.56462c0.260414,-0.012675 0.504696,-0.03572 0.748401,-0.036297c2.120182,-0.002881 4.239788,0.028807 6.358819,-0.008642c3.411304,-0.059918 5.940543,1.482399 7.885004,4.181023c1.75376,2.432448 2.414012,5.251484 2.868584,8.125829c0.912024,5.780377 1.046264,11.607998 0.722475,17.436195c-0.180907,3.257476 -0.570951,6.509766 -1.001325,9.746501c-0.260414,1.960593 -0.863629,3.857234 -1.761825,5.644985c-1.506021,2.997638 -3.873366,4.90465 -7.224176,5.213459c-2.832287,0.261566 -5.695685,0.186092 -8.595957,0.261566m5.082676,-5.206546c3.228093,0.090453 5.347699,-1.110215 6.417008,-3.838797c0.99614,-2.543643 1.330875,-5.218068 1.512934,-7.905169c0.436711,-6.444087 0.516794,-12.889902 -0.248891,-19.319009c-0.226422,-1.898946 -0.570375,-3.777151 -1.374086,-5.5384c-1.063548,-2.331624 -3.248834,-3.735093 -6.306966,-3.349081l0,39.950457z" fill="#ffffff" clip-path="url(#SVGID_2_)"/>
   <path stroke="null" id="svg_11" d="m209.194042,257.711041l0,-50.347416c0.070865,-0.041482 0.108314,-0.08354 0.146915,-0.08354c2.764303,0.001728 5.535519,-0.120989 8.290604,0.046091c2.859365,0.173993 4.934033,1.833266 6.574294,4.099787c1.613182,2.229648 2.293599,4.804978 2.747595,7.44714c0.995564,5.795357 1.165524,11.645447 0.864205,17.497842c-0.175145,3.397477 -0.553667,6.790921 -0.993835,10.165929c-0.292101,2.23829 -0.968485,4.403411 -2.093104,6.396267c-1.675981,2.971136 -4.273204,4.555511 -7.619981,4.76753c-2.525206,0.159014 -5.067121,0.059342 -7.601545,0.071441c-0.088149,0 -0.176298,-0.033992 -0.315147,-0.06107m5.098808,-5.075763c3.302991,0.301896 5.640952,-1.337789 6.725241,-4.677652c0.795068,-2.450885 1.079104,-4.993375 1.241574,-7.543931c0.369303,-5.79939 0.430374,-11.602813 -0.123869,-17.395289c-0.226422,-2.362736 -0.540416,-4.713949 -1.51063,-6.917095c-1.104454,-2.50677 -3.660771,-3.895259 -6.332316,-3.408424l0,39.942391z" fill="#ffffff" clip-path="url(#SVGID_2_)"/>
   <path stroke="null" id="svg_12" d="m176.05467,257.776145c-1.703636,0 -3.313937,0.018436 -4.921934,-0.026502c-0.171689,-0.005185 -0.425189,-0.3549 -0.484531,-0.585931c-1.052601,-4.122833 -2.082157,-8.252003 -3.114018,-12.380597c-0.848073,-3.391716 -1.687504,-6.78516 -2.546523,-10.174571c-0.053005,-0.207409 -0.24601,-0.379098 -0.37276,-0.568071c-0.072017,0.214899 -0.207409,0.429222 -0.207409,0.644121c-0.011523,7.348621 -0.009794,14.697818 -0.009794,22.047015l0,0.998445l-5.01354,0l0,-50.48108c0.376217,0 0.737455,-0.000576 1.098116,0c2.051046,0.003457 4.101516,-0.028807 6.150833,0.017284c3.573199,0.081235 5.971079,1.819439 7.235698,5.167368c0.917785,2.43072 1.149392,4.968025 1.159187,7.535865c0.009794,2.698623 -0.098519,5.389181 -0.872847,8.004264c-0.656796,2.218126 -1.99228,3.932708 -3.946535,5.1328c-0.513338,0.315147 -0.540416,0.587659 -0.404448,1.095235c2.049318,7.643603 4.079623,15.291239 6.113384,22.938299c0.046667,0.176298 0.077202,0.356052 0.13712,0.636055m-11.606846,-45.083257l0,16.584665c2.540186,0.209138 4.509997,-1.207006 5.131648,-3.69073c0.588235,-2.351789 0.595149,-4.747365 0.337616,-7.133722c-0.117532,-1.084289 -0.361814,-2.188743 -0.759348,-3.201591c-0.761652,-1.932362 -2.661751,-2.907185 -4.709916,-2.558622" fill="#ffffff" clip-path="url(#SVGID_2_)"/>
   <path stroke="null" id="svg_13" d="m114.367159,257.775568c-1.49277,0 -2.983811,0.013827 -4.4737,-0.022469c-0.142306,-0.003457 -0.372184,-0.306505 -0.398686,-0.493749c-0.399839,-2.82595 -0.770871,-5.655932 -1.151121,-8.484762c-0.045515,-0.339921 -0.105433,-0.677537 -0.168808,-1.080256l-1.195483,0c-2.072939,-0.000576 -4.145878,0.010947 -6.218817,-0.009794c-0.449963,-0.004609 -0.656219,0.119836 -0.720747,0.589388c-0.404448,2.941177 -0.843464,5.877745 -1.245031,8.819498c-0.067408,0.496054 -0.212594,0.714985 -0.762805,0.69943c-1.37639,-0.039753 -2.755085,-0.013251 -4.215591,-0.013251c0.207985,-1.315896 0.397534,-2.556318 0.599182,-3.795011c0.994412,-6.08573 1.994585,-12.17146 2.987844,-18.257766c1.182232,-7.244916 2.358703,-14.490985 3.539207,-21.736478c0.33704,-2.067178 0.690788,-4.130899 1.007663,-6.200957c0.060494,-0.393501 0.17745,-0.558276 0.595725,-0.548482c1.058939,0.024774 2.11903,0.020165 3.178545,0.001728c0.381978,-0.006914 0.497782,0.142882 0.557124,0.509881c0.947745,5.885234 1.912197,11.766436 2.872617,17.648213c1.134413,6.949935 2.268249,13.899293 3.402086,20.849228c0.611281,3.747768 1.220833,7.49496 1.829233,11.242728c0.01037,0.063951 -0.00749,0.132511 -0.018436,0.282883m-10.209139,-38.899584c-0.059918,-0.002305 -0.119836,-0.005185 -0.179755,-0.00749c-1.033589,7.93628 -2.067178,15.873713 -3.103071,23.830158l6.590425,0c-1.109639,-7.988709 -2.208331,-15.9054 -3.3076,-23.822668" fill="#ffffff" clip-path="url(#SVGID_2_)"/>
   <rect stroke="null" id="svg_14" height="50.44075" width="4.989918" fill="#ffffff" clip-path="url(#SVGID_2_)" y="207.284118" x="189.190007"/>
   <path stroke="null" id="svg_58" d="m60.547945,181.23353l0,18.662213l-2.289566,0c-0.260414,-1.467996 -0.53984,-2.934839 -0.779513,-4.40802c-0.483955,-2.976321 -0.953506,-5.954947 -1.410958,-8.935877c-0.064527,-0.422884 -0.220084,-0.595725 -0.662557,-0.569223c-0.594573,0.03572 -1.192603,0.008066 -1.856888,0.008066c-0.040906,0.414818 -0.092758,0.774904 -0.110042,1.136717c-0.151524,3.171631 0.376793,6.287378 0.733422,9.422136c0.325517,2.856485 0.501239,5.731406 0.677537,8.60287c0.065103,1.056634 -0.019589,1.062396 -1.057787,1.062396c-1.286513,0.000576 -2.572449,0 -3.932708,0c0.100824,1.221409 0.189549,2.361584 0.290373,3.500605c0.292101,3.303567 0.594573,6.606557 0.878608,9.911276c0.031688,0.36239 0.002881,0.736879 -0.051852,1.09754c-0.107738,0.703463 -0.501815,1.185689 -1.217376,1.332604c-0.731693,0.150372 -1.424786,0.01498 -1.834995,-0.642968c-0.360661,-0.579017 -0.630869,-1.225442 -0.866509,-1.869563c-1.404045,-3.843983 -2.201418,-7.837761 -2.86167,-11.861498c-1.157458,-7.053639 -1.734171,-14.170077 -2.242323,-21.292853c-0.04033,-0.573832 -0.112347,-1.144783 -0.175722,-1.716311c-0.006914,-0.063951 -0.054157,-0.123293 -0.125022,-0.275393c-0.853258,0.284035 -1.710549,0.568647 -2.62603,0.873423c0.265023,1.400012 0.54733,2.747595 0.772023,4.10382c1.780838,10.748979 4.561849,21.285363 6.764995,31.943888c0.521404,2.522902 0.881489,5.078643 1.28997,7.623438c0.079507,0.495477 0.085268,1.014576 0.040906,1.515239c-0.069136,0.788155 -0.623956,1.145359 -1.310134,0.722475c-0.888979,-0.547906 -1.78199,-1.174742 -2.471626,-1.947918c-3.035087,-3.403238 -6.184249,-6.72985 -8.951433,-10.342802c-9.628969,-12.574755 -18.489949,-25.673795 -26.131823,-39.562717c-2.944058,-5.351732 -5.460622,-10.903383 -7.255863,-16.760387c-1.391946,-4.538803 -2.043556,-9.169789 -1.669067,-13.911392c0.631446,-8.001384 4.158553,-14.506541 10.296135,-19.624361c4.624648,-3.856082 9.914157,-6.517256 15.578155,-8.442704c2.850147,-0.969062 5.765974,-1.74627 8.663365,-2.573026c0.449963,-0.129055 0.604367,-0.29383 0.54733,-0.747249c-0.086997,-0.685026 -0.08642,-1.382728 -0.198767,-2.062569c-0.15959,-0.967333 0.248315,-1.627586 0.970214,-2.204298c0.439592,-0.350867 0.850377,-0.757619 1.203549,-1.196636c2.995334,-3.718961 6.789769,-6.033878 11.579767,-6.557009c6.706229,-0.731693 13.429742,-0.771447 20.153831,-0.324365c4.320448,0.286916 8.642624,0.587083 12.950972,1.012272c7.181541,0.708072 14.291066,1.870715 21.201247,4.013367c3.828427,1.187417 7.353806,3.027597 10.656221,5.302184c0.521404,0.358357 1.110215,0.649306 1.70594,0.863052c3.428012,1.229475 6.689521,2.747595 9.366251,5.298151c2.288414,2.180101 3.655586,4.82111 3.93386,7.995622c0.186668,2.132281 -0.39523,4.104973 -1.254825,6.015441c-1.152273,2.562079 -2.772945,4.822839 -4.509997,7.011005c-0.249467,0.313994 -0.449963,0.695397 -0.570951,1.078528c-2.041828,6.464828 -5.682434,11.942733 -10.361815,16.770181c-6.764419,6.978165 -14.876997,11.918536 -23.792133,15.628279c-6.503429,2.705537 -13.251716,4.486951 -20.265025,5.161031c-2.171458,0.209138 -4.371724,0.11638 -6.558738,0.160166c-0.22815,0.004609 -0.456876,0.001152 -0.850954,0.001152m-21.239272,-63.40555c0.160742,0.971366 0.333007,1.834419 0.440168,2.704961c0.140577,1.142479 0.203952,2.294752 0.346258,3.43723c0.565766,4.545717 1.11252,9.094315 1.735323,13.632542c0.816962,5.952642 1.7238,11.893762 2.544795,17.845828c0.799101,5.792476 1.557297,11.59129 2.290143,17.392409c0.1521,1.208734 0.362966,2.369649 1.096388,3.362333c0.164199,0.222965 0.487411,0.444777 0.75013,0.460909c3.631964,0.218932 7.266234,0.411361 10.901079,0.580746c0.444777,0.020741 0.917785,-0.066256 1.342398,-0.208561c3.73106,-1.245031 7.438498,-2.564384 11.183386,-3.766204c7.99447,-2.564384 15.7533,-5.677249 23.156078,-9.658928c7.870601,-4.232875 15.166793,-9.259666 21.573431,-15.52227c0.287492,-0.280578 0.535231,-0.636631 0.698277,-1.003054c1.702483,-3.829003 2.460679,-7.84986 2.320102,-12.032035c-0.106585,-3.1555 -0.647577,-6.23034 -2.015902,-9.106414c-2.090799,-4.394769 -5.559141,-7.468457 -9.703867,-9.816214c-1.38388,-0.783546 -2.891053,-1.569396 -4.428761,-1.816558c-3.335254,-0.536959 -6.720056,-0.835398 -10.09564,-1.037622c-8.871926,-0.531198 -17.729448,-0.199343 -26.576024,0.619923c-7.79916,0.722475 -15.567784,1.656969 -23.271882,3.086363c-1.484128,0.273665 -2.961918,0.582474 -4.285879,0.844616m-4.0174,0.92009c-1.338941,0.359509 -2.585701,0.676384 -3.822666,1.02898c-6.025812,1.717463 -11.824626,3.963819 -17.081871,7.44426c-4.512301,2.987268 -8.277929,6.681455 -10.708073,11.584953c-3.02875,6.109928 -3.425131,12.548253 -2.157055,19.140407c0.98865,5.141442 2.925621,9.967738 5.137409,14.689176c3.661347,7.814715 8.058421,15.215189 12.787926,22.418047c5.106874,7.776114 10.112348,15.63404 16.027541,22.836899c3.053523,3.718385 6.32425,7.25932 9.527569,10.852683c0.53235,0.596877 1.222562,1.052601 1.84018,1.573429c0.055885,-0.043786 0.11177,-0.087573 0.167656,-0.131935c0,-0.288644 0.04321,-0.585355 -0.006338,-0.864781c-0.725356,-4.076742 -1.380999,-8.169039 -2.217549,-12.223312c-1.21392,-5.881778 -2.586853,-11.730139 -3.83995,-17.604427c-0.566342,-2.654837 -1.007663,-5.337329 -1.505445,-8.006569c0.04033,1.361987 0.193582,2.708418 0.292101,4.058882c0.017284,0.237944 -0.19531,0.492021 -0.302472,0.738607c-0.198767,-0.173417 -0.511033,-0.310538 -0.579593,-0.525436c-0.640088,-2.014173 -1.27499,-4.031803 -1.833842,-6.070174c-0.307657,-1.120009 -0.466671,-2.282077 -0.70231,-3.473527c-0.316299,0.088149 -0.556548,0.150372 -0.793916,0.224117c-5.36844,1.663306 -10.801407,3.067927 -16.339231,4.04563c-0.285188,0.050124 -0.704615,0.262718 -0.743216,-0.26099c-0.010947,-0.146915 0.296134,-0.424613 0.492021,-0.463214c5.569512,-1.068157 10.994413,-2.685372 16.414705,-4.318719c0.254652,-0.077202 0.504696,-0.168232 0.804863,-0.269056c-0.44593,-2.261336 -0.735726,-4.488103 -1.331451,-6.630179c-3.033935,-10.906264 -6.1468,-21.790635 -9.231435,-32.682495c-0.06856,-0.24313 -0.173993,-0.488564 -0.175722,-0.732846c-0.000576,-0.138273 0.1521,-0.358933 0.277122,-0.394654c0.11926,-0.033992 0.32955,0.092182 0.432679,0.207409c0.098519,0.109466 0.115227,0.295558 0.160166,0.449963c2.54998,8.771102 5.105722,17.5399 7.643027,26.315035c0.566342,1.958864 1.068157,3.936741 1.599931,5.906551c0.08354,0.006914 0.16708,0.013827 0.250619,0.021317c0.039177,-0.252348 0.159014,-0.523132 0.104857,-0.75301c-0.399839,-1.702483 -0.832517,-3.396901 -1.257706,-5.092471c-3.170479,-12.657143 -6.339806,-25.314285 -9.513166,-37.9697c-0.498358,-1.985943 -1.016305,-3.967276 -1.52849,-5.950338c-0.095063,-0.367575 -0.1521,-0.748401 0.381402,-0.704039c0.156709,0.013251 0.343377,0.338192 0.420004,0.554243c1.15573,3.251714 2.400185,6.475774 3.418218,9.769547c3.089244,9.989631 5.455437,20.165354 7.66492,30.379101c0.598606,2.767184 1.161491,5.541857 1.76413,8.307312c0.044939,0.209714 0.280578,0.542144 0.421732,0.539264c0.915481,-0.019589 1.828657,-0.116956 2.806937,-0.193582c-0.03284,-0.290949 -0.052428,-0.515066 -0.084692,-0.736302c-0.527165,-3.599125 -1.092931,-7.193064 -1.576309,-10.79795c-0.863052,-6.440054 -0.761076,-12.912947 -0.656796,-19.389298c0.036297,-2.268826 -0.147491,-4.554359 -0.417123,-6.81051c-0.550786,-4.616006 -1.253673,-9.214151 -1.841908,-13.826124c-0.258685,-2.029729 -0.390621,-4.075013 -0.589388,-6.210175m3.77427,-1.868411c3.920033,-0.662557 7.785333,-1.382728 11.673102,-1.954831c3.916576,-0.57556 7.848131,-1.068157 11.785448,-1.478942c3.915424,-0.408481 7.841794,-0.759924 11.772773,-0.971366c3.954025,-0.212018 7.920725,-0.318603 11.880511,-0.290949c3.901596,0.027078 7.801464,0.280578 11.842486,0.440744c-0.333007,-0.088725 -0.529469,-0.147491 -0.728237,-0.19243c-7.293312,-1.662154 -14.705884,-2.488334 -22.148992,-3.040848c-7.289279,-0.541568 -14.590081,-0.710376 -21.887426,-0.13424c-2.174915,0.171689 -4.36481,0.389468 -6.495363,0.83655c-2.757965,0.578441 -5.137409,1.882814 -6.620961,4.447198c-0.158438,0.274817 -0.364118,0.566918 -0.623956,0.729965c-0.663133,0.415394 -0.672351,0.963876 -0.449386,1.609149m23.686124,60.367006c0.010947,0.048395 0.021893,0.096791 0.033416,0.14461c0.22066,0 0.441897,0.000576 0.663133,0c4.707035,-0.012675 9.305757,-0.799677 13.842256,-1.987671c7.997351,-2.094832 15.39552,-5.561446 22.380022,-9.933169c4.985309,-3.120355 9.575965,-6.729274 13.301839,-11.330877c1.001325,-1.236389 1.886847,-2.566688 2.824797,-3.853777c-0.054157,-0.042634 -0.108314,-0.08642 -0.16247,-0.129631c-0.16708,0.148643 -0.331278,0.300167 -0.501815,0.444777c-1.599355,1.355649 -3.160109,2.759118 -4.805555,4.055425c-8.92205,7.029441 -18.838511,12.306852 -29.42041,16.319066c-5.761941,2.184133 -11.655241,4.022585 -17.4892,6.018898c-0.224117,0.077778 -0.444201,0.168232 -0.666014,0.252348m60.349722,-36.499399c0.153828,-0.11177 0.220084,-0.140001 0.256957,-0.189549c1.558449,-2.092528 2.94809,-4.280694 3.831884,-6.756353c1.295155,-3.630236 0.686179,-6.983351 -1.529642,-10.064528c-1.740508,-2.419773 -4.16201,-3.99954 -6.800139,-5.277986c-0.694821,-0.336464 -1.409806,-0.632022 -2.115573,-0.94544c6.463099,6.551248 8.005417,14.412631 6.356514,23.233857m-84.845318,-0.263871c0.06568,0.00749 0.130207,0.01498 0.195886,0.021893c0.198767,-2.193352 1.159187,-4.083079 2.222735,-6.050586c0.343377,4.490984 0.602063,8.85637 1.03186,13.205049c0.428069,4.327361 1.027828,8.636862 1.552688,12.954429c0.091606,-0.01037 0.182635,-0.021317 0.274241,-0.031111c-0.129055,-1.462234 -0.243706,-2.925621 -0.390044,-4.385551c-0.433831,-4.32909 -0.875151,-8.656451 -1.322809,-12.983812c-0.434983,-4.211558 -0.838855,-8.426572 -1.334332,-12.63064c-0.433831,-3.676903 -0.988074,-7.339403 -1.466844,-11.010545c-0.214899,-1.644294 -0.190701,-1.647174 -1.852855,-1.24964c-1.090626,0.26099 -1.220833,0.443625 -1.108487,1.542894c0.591692,5.793629 1.178199,11.587257 1.777957,17.379734c0.112347,1.08256 0.27885,2.158783 0.420004,3.237887m8.135624,65.414538c0.415971,4.658064 0.827332,9.256785 1.243879,13.919458c1.020338,-0.300743 1.958864,-0.577865 2.915827,-0.859596c-0.032264,-0.159014 -0.04033,-0.250043 -0.069136,-0.333007c-1.28997,-3.69073 -1.957712,-7.52319 -2.558046,-11.367173c-0.18782,-1.20643 -0.161894,-1.210463 -1.532523,-1.359682m-19.355882,-68.399501c-0.064527,0.012675 -0.128478,0.02535 -0.193006,0.038601c2.91986,11.58092 5.83972,23.162416 8.759579,34.743912c0.061647,-0.015556 0.123869,-0.031688 0.185516,-0.046667c-2.446276,-11.697299 -5.047532,-23.355421 -8.75209,-34.735846m11.807918,46.852572c0.858443,-0.270208 1.628162,-0.491444 2.377715,-0.766262c0.146915,-0.054733 0.323789,-0.331855 0.304776,-0.484531c-0.10889,-0.880913 -0.271936,-1.755488 -0.43095,-2.715907c-1.001901,0.164199 -1.939275,0.317451 -2.935415,0.480498c0.235064,1.197212 0.450539,2.294176 0.683874,3.486202m76.002775,-67.959909c-3.675751,-1.526186 -7.568129,-2.161664 -11.462812,-2.786772c-0.01498,0.059918 -0.029959,0.119836 -0.044939,0.180331c3.835917,0.86939 7.671834,1.738204 11.50775,2.606442m7.68278,26.070177c-0.050124,-0.04321 -0.100824,-0.087573 -0.150948,-0.130783c-1.743389,1.918535 -3.48793,3.836493 -5.231319,5.754451l0.153828,0.135392c1.818863,-1.852279 3.671718,-3.674599 5.228439,-5.75906m-86.187716,38.620158c0.3042,1.337213 0.579017,2.547676 0.85441,3.757562c0.467823,-0.62338 -0.216051,-3.540359 -0.85441,-3.757562m19.175551,-2.004955c0.020741,0.066832 0.041482,0.133664 0.061647,0.200496c1.682319,-0.520251 3.364637,-1.040503 5.04638,-1.560754c-0.03284,-0.103705 -0.065103,-0.205681 -0.097367,-0.309385c-1.67022,0.557124 -3.340439,1.113096 -5.010659,1.669644m-18.489949,1.701907c0.081811,-0.009794 0.163047,-0.019013 0.244282,-0.028231c-0.23564,-1.109639 -0.47128,-2.219278 -0.707496,-3.328917c-0.085268,0.018436 -0.170536,0.036297 -0.256381,0.054157c0.240249,1.100997 0.479922,2.201418 0.719594,3.302991m0.732269,4.999136c-0.114651,0.020741 -0.228726,0.04321 -0.343377,0.065103c0.235064,1.045688 0.470127,2.091952 0.705191,3.138792c0.054157,-0.01037 0.10889,-0.020165 0.163047,-0.030535c-0.174569,-1.05721 -0.349715,-2.115573 -0.52486,-3.17336m-0.100824,-5.153541c0.06568,-0.006914 0.130783,-0.013827 0.196463,-0.021317c-0.226422,-1.113672 -0.452843,-2.226768 -0.679265,-3.340439c-0.053581,0.011523 -0.107738,0.022469 -0.161318,0.033416l0.644121,3.328341zm-2.105203,-1.96693c-0.102552,0.018436 -0.205105,0.036873 -0.307657,0.056461c0.133664,0.577865 0.267327,1.15573 0.400415,1.733019c0.093334,-0.020165 0.186668,-0.041482 0.279426,-0.062799c-0.123869,-0.576136 -0.248315,-1.151121 -0.372184,-1.726681" fill="#ffffff" clip-path="url(#SVGID_2_)"/>
  </g>
 </g>
</svg>