<?xml version="1.0" encoding="utf-8"?>
<!-- Generator: Adobe Illustrator 21.0.0, SVG Export Plug-In . SVG Version: 6.00 Build 0)  -->
<svg version="1.1" id="_x23_Layer_2" xmlns="http://www.w3.org/2000/svg" xmlns:xlink="http://www.w3.org/1999/xlink" x="0px"
	 y="0px" viewBox="0 0 332.8 246.2" style="enable-background:new 0 0 332.8 246.2;" xml:space="preserve">
<style type="text/css">
	.st0{fill:#7f2346;}
	.st1{fill:#4e748b;}
  .st2{fill:#7f2346;stroke:#7f2346;stroke-width:1.4169;stroke-miterlimit:22.9256;}
	.st3{fill:#7f2346;stroke:#7f2346;stroke-width:3.0607;stroke-miterlimit:22.9256;}
</style>
<g>
	<polygon class="st1" points="68.1,0.2 152.4,0.2 152.4,23.4 98.4,23.4 98.4,32.4 143,32.4 143,53.8 98.4,53.8 98.4,63 152.8,63
		152.8,86.5 68.1,86.5 	"/>
	<path class="st1" d="M165.5,100.9h29.8l27.8,47h0.7c-0.4-2.1-0.9-4.3-1.2-6.5c-0.7-5-1.2-10.1-1.2-15.1v-25.4H251v84.8h-29.6
		l-27.3-44.5h-0.5c1,5.8,1.5,11.4,1.5,17v27.5h-29.6V100.9z"/>
	<polygon class="st0" points="251,0 225.6,0 251,71.3 	"/>
	<path class="st0" d="M210.7,39.7c-0.6-2.4-2-10.9-2-10.9h-1.2c0,0-1.5,8.5-2,10.9c-0.5,2.4-4.4,16-4.4,16h14.1
		C215.1,55.7,211.2,42.1,210.7,39.7z"/>
	<polygon class="st0" points="165.2,0 165.2,71.3 189.9,0 	"/>
	<polygon class="st0" points="220.1,75.4 196.1,75.4 192.9,87.1 223.5,87.1 	"/>
	<path class="st2" d="M78.7,193.8c-2.1-11.2-4.3-23.7-6.2-37.2c-0.6-3.8-0.9-8.6-0.9-14.4c0-1.4,0.1-3,0.1-5.1
		c0.3-6.3,0.2-6.3,2.5-10.7c0,0,0.9,25.4,5.7,37.7c3.8,9.8,13.1,1.3,13,4.4c-0.1,4.4,0,11-0.1,19.8h-2.1l-1.1-6.6
		c-0.4-2.2-0.8-4.4-1-6.6h-2.3c-0.1,0.9-0.1,1.8-0.1,2.7c0,1.6,0.3,4,0.8,7.3c0.4,3.3,0.6,5.7,0.6,7.3c0,0.6,0,1.3-0.1,1.8H81
		C80.2,194.1,79.5,193.9,78.7,193.8z"/>
	<path class="st3" d="M86.7,166.7c5.4,0.5,9.4,0.6,12,0.4c8.4-0.7,16.8-3.3,25.3-7.8c12.9-6.8,22.3-15.5,24.2-26.2
		c0.3-1.5,0.5-3.1,0.5-4.6c0,0,0-0.8,0-1.7c-0.1-0.9-0.1-1.8-0.3-2.6c-0.1-0.8-0.3-1.6-0.6-2.8c-0.3-1.1-0.7-2.2-1-2.7
		c-0.5-1-1.1-2.2-2-3.3c-0.6-0.8-1.3-1.5-2.1-2.3c-1.3-1.3-2.9-2.4-4.4-3.4c-2.8-1.7-5.4-2.6-9-3.5c-3.1-0.8-9.7-2-13.2-2.4
		s-8.5-0.9-11.7-1.1c-3.8-0.2-8.3-0.4-12.5-0.3c-3.6,0.1-6.8,0.3-9.1,0.5c-4.9,0.4-7.9,2.2-9.1,4.4c-0.5,0.8-1,1.3-1.5,1.6l0.6,6.9
		c0.6,3,1.8,11.5,3.8,25.3c0.5,3.3,1.4,9.4,2.6,18.4c0.4,4,1,9.3,1.6,15.9c0.7,7.5,1.7,18,2.8,31.5c0.1,1.4-0.3,2.1-1.4,2.2
		c-0.8,0.1-1.4-0.4-1.8-1.3c-2.1-5.1-3.6-13.4-4.6-24.9c-0.3-3-0.8-9.6-1.5-19.8c-0.7-8.2-1.2-14.8-1.7-19.8l-3.1-30.5
		c-0.1-1.2,0.4-1.8,1.5-1.9s1.8,0.5,1.9,1.7c0.4,5,1.5,15.1,3.1,30.5c0.5,5.1,1.1,11.8,1.8,20.1c0.9,10.3,1.5,17,1.8,20
		c1,10.9,2.2,18.6,3.9,23.2l-3,0.9c-2.1-23.8-3.6-39.5-4.6-47.3c-0.5-3.2-1.4-9.3-2.6-18.2c-0.6-3.5-1.2-6.9-1.8-10.4
		c-1-5.3-1.6-10.3-2-14.9l-0.7-8.4c-0.1-1.2,1.5-1.9,1.5-1.9c0.5-0.8,1.3-1.8,1.8-2.3s2.7-2.3,4.3-3.1c1.8-0.9,4.2-1.4,6.5-1.6
		c4.9-0.4,11.4-0.6,17.8-0.2c3.1,0.2,6.8,0.5,8.5,0.6s6.7,0.7,9.6,1.1s9.9,1.7,14,3.1c5.1,1.7,10.1,4.7,13.2,7.7
		c0.5,0.5,1,1.1,1.5,1.8c0.5,0.7,1.1,1.4,1.6,2.2c0.4,0.7,0.8,1.4,1.1,2.2c0.4,0.9,0.8,2,1,2.9c0.3,1.3,0.6,2.5,0.7,3.7
		c0.1,1,0.2,2.6,0,5.3c0,0.3-0.1,1.4-0.2,1.5c-1.7,11.2-10.6,23-26,31.3c-8.9,4.7-17.9,7.5-27,8.3c-2.6,0.2-6.6,0.1-11.9-0.4
		s-9.3-0.6-11.9-0.4c-1.2,0.1-2.6,0.3-4.2,0.7c-1.3,0.3-2-0.2-2.1-1.6c-0.1-1.1,0.6-1.8,2.2-2.2c0.2,0,1.3-0.1,3.5-0.3L86.7,166.7
		L86.7,166.7z M60.3,136.6c0-0.1-0.2-0.2-0.3-0.1c-0.1,0.1-0.2,0.2-0.1,0.4c4.5,15.4,7.5,26,9,31.9l1.5,8.1c0.6,3.2,1.3,5.8,2.2,7.8
		c0,0.2,0.1,0.2,0.2,0.2c0.2,0,0.4-0.1,0.3-0.4c-0.5-6.3-1.8-13.5-3.8-21.8c-2.4-9.6-4.2-16.7-5.5-21.4c-2.4-9.7-3.6-14.7-3.6-14.8
		c2.6,6.8,5.4,17.4,8.5,31.7c1.1,5.1,2.9,14.7,5.5,28.9c0.6,3.3,1.7,8.2,3.2,14.9s2.4,11.5,2.7,14.3c0,0.5,0,0.8-0.2,0.9
		c-0.8-0.4-1.5-1-2.1-1.6c-5.8-6.2-10.5-11.8-14-16.8c-7.5-10.7-13-19.2-16.6-25.5c-6.6-11.4-10.2-20.6-10.8-27.6
		c-1.2-13.4,5.4-23.2,19.6-29.5c9.5-4.2,24-7.2,43.7-8.9c11.8-1,22.5-0.9,31.9,0.2c15.7,2,23.9,6.9,24.5,14.7
		c0.4,3.9-2.4,9.1-8.4,15.4c-9.1,9.7-21.5,17.5-37.4,23.6l-25.1,8.5c-15.2,5.2-25.9,8.3-32.1,9.5c-0.2,0-0.3,0.1-0.2,0.3
		c0,0.3,0.1,0.3,0.3,0.2c5-0.9,10.6-2.2,16.5-4.1l15.8-5.4c13.8-4.7,22.2-7.5,25-8.5c15.7-6,28.2-13.9,37.5-23.7
		c6.1-6.4,8.9-11.7,8.6-15.7c-0.7-8-8.9-13.1-24.7-15.2c-9.7-1.2-20.5-1.3-32.4-0.3c-19.7,1.7-34.4,4.7-43.9,8.9
		c-14.5,6.4-21.1,16.5-19.9,30.2c0.6,7.1,4.2,16.3,10.8,27.8c3.5,6.1,9.1,14.6,16.8,25.6c3.9,5.6,8.6,11.3,13.9,17.1
		c0.8,0.8,1.5,1.4,2.1,1.6c0.9,0.4,1.3,0,1.2-1.4c-0.3-2.9-1.2-7.7-2.7-14.3c-1.9-8.4-3.1-13.4-3.4-15c-4.6-25.4-8.9-44.6-12.9-57.6
		c-1.2-3.8-2.3-7-3.4-9.5c-0.1,0-0.2-0.1-0.3,0c-0.1,0-0.2,0.1-0.2,0.2c2.4,9.3,4.2,16.4,5.3,21.2L68,162c2.1,7.9,3.4,14.7,4,20.5
		c-1.5-6.5-2.5-11-3-13.4C66.7,158,63.6,147.3,60.3,136.6z"/>
	<path class="st1" d="M0,246v-15.3h6.9v2.6h-5v3.4h4.7v2.6H1.9v4.2h5.2v2.6H0V246z M8.7,230.7h1.9v8.3c0,1.3,0,2.2,0.1,2.6
		c0.1,0.6,0.3,1.1,0.6,1.5s0.7,0.6,1.2,0.6s0.9-0.2,1.2-0.5c0.3-0.4,0.4-0.8,0.5-1.3s0.1-1.4,0.1-2.6v-8.5h1.9v8
		c0,1.8-0.1,3.1-0.2,3.9c-0.1,0.8-0.3,1.4-0.6,1.9s-0.6,0.9-1.1,1.3c-0.5,0.3-1.1,0.5-1.8,0.5c-0.9,0-1.6-0.2-2-0.5
		c-0.5-0.3-0.8-0.8-1.1-1.3s-0.4-1.1-0.5-1.7c-0.1-0.9-0.2-2.2-0.2-3.9L8.7,230.7L8.7,230.7z M18.1,246v-15.3h4c1,0,1.7,0.1,2.2,0.4
		c0.5,0.3,0.8,0.8,1.1,1.5c0.3,0.7,0.4,1.5,0.4,2.4c0,1.1-0.2,2.1-0.6,2.8s-1,1.2-1.9,1.4c0.4,0.4,0.7,0.8,1,1.3s0.6,1.3,1.1,2.5
		l1.1,3h-2.3l-1.4-3.3c-0.5-1.2-0.8-1.9-1-2.2s-0.4-0.5-0.6-0.6s-0.5-0.2-0.9-0.2H20v6.4L18.1,246L18.1,246z M20,237.1h1.4
		c0.9,0,1.5-0.1,1.7-0.2c0.2-0.1,0.4-0.3,0.5-0.6s0.2-0.7,0.2-1.2s-0.1-0.9-0.3-1.2c-0.2-0.3-0.4-0.5-0.7-0.6
		c-0.2,0-0.6-0.1-1.4-0.1H20V237.1L20,237.1z M27.2,238.4c0-1.6,0.1-2.9,0.4-3.9c0.2-0.8,0.5-1.5,0.9-2.1s0.8-1.1,1.2-1.4
		c0.6-0.4,1.3-0.6,2-0.6c1.4,0,2.5,0.7,3.3,2.1c0.8,1.4,1.2,3.3,1.2,5.8s-0.4,4.4-1.2,5.8c-0.8,1.4-1.9,2.1-3.3,2.1
		c-1.4,0-2.5-0.7-3.3-2.1C27.6,242.8,27.2,240.8,27.2,238.4L27.2,238.4z M29.1,238.3c0,1.7,0.2,3,0.7,3.9s1.1,1.3,1.9,1.3
		s1.4-0.4,1.9-1.3c0.5-0.9,0.7-2.2,0.7-4c0-1.7-0.2-3.1-0.7-3.9c-0.5-0.9-1.1-1.3-1.9-1.3c-0.8,0-1.4,0.4-1.9,1.3
		C29.3,235.2,29.1,236.5,29.1,238.3L29.1,238.3z M37.7,246v-15.3h3c1.1,0,1.9,0.1,2.2,0.2c0.5,0.2,1,0.7,1.3,1.5
		c0.4,0.8,0.5,1.8,0.5,3c0,0.9-0.1,1.7-0.3,2.4c-0.2,0.6-0.5,1.1-0.8,1.5s-0.6,0.6-1,0.7c-0.5,0.1-1.1,0.2-2,0.2h-1.2v5.8L37.7,246
		L37.7,246z M39.6,233.3v4.3h1c0.7,0,1.2-0.1,1.5-0.2c0.2-0.2,0.4-0.4,0.6-0.8c0.1-0.3,0.2-0.7,0.2-1.2c0-0.6-0.1-1-0.3-1.4
		s-0.5-0.6-0.8-0.7c-0.2-0.1-0.7-0.1-1.4-0.1L39.6,233.3L39.6,233.3z M46.4,246v-15.3h6.9v2.6h-5v3.4H53v2.6h-4.7v4.2h5.2v2.6h-7.1
		V246z M63.5,246h-2.1l-0.8-3.5h-3.7l-0.8,3.5h-2l3.6-15.3h2L63.5,246L63.5,246z M60,239.9l-1.3-5.7l-1.3,5.7H60L60,239.9z
		 M64.5,246v-15.3h1.8l3.8,10.2v-10.2h1.8V246H70l-3.8-10v10H64.5L64.5,246z M85.5,246h-2.1l-0.8-3.5h-3.7l-0.8,3.5h-2l3.6-15.3h2
		L85.5,246L85.5,246z M82,239.9l-1.3-5.7l-1.3,5.7H82L82,239.9z M86.5,246v-15.3h1.8l3.8,10.2v-10.2h1.8V246H92l-3.8-10v10H86.5
		L86.5,246z M98,246v-12.7h-2.8v-2.6h7.4v2.6h-2.8V246H98L98,246z M103.8,246v-15.3h1.9V246H103.8L103.8,246z M111.1,246v-15.3h3
		c1.1,0,1.9,0.1,2.2,0.2c0.5,0.2,1,0.7,1.3,1.5c0.4,0.8,0.5,1.8,0.5,3c0,0.9-0.1,1.7-0.3,2.4c-0.2,0.6-0.5,1.1-0.8,1.5
		s-0.6,0.6-1,0.7c-0.5,0.1-1.1,0.2-2,0.2h-1v5.8L111.1,246L111.1,246z M113,233.3v4.3h1c0.7,0,1.2-0.1,1.5-0.2
		c0.3-0.2,0.4-0.4,0.6-0.8c0.1-0.3,0.2-0.7,0.2-1.2c0-0.6-0.1-1-0.3-1.4c-0.2-0.4-0.5-0.6-0.8-0.7c-0.2-0.1-0.7-0.1-1.4-0.1
		L113,233.3L113,233.3z M119.4,238.4c0-1.6,0.1-2.9,0.4-3.9c0.2-0.8,0.5-1.5,0.9-2.1s0.8-1.1,1.2-1.4c0.6-0.4,1.3-0.6,2-0.6
		c1.4,0,2.5,0.7,3.3,2.1c0.8,1.4,1.2,3.3,1.2,5.8s-0.4,4.4-1.2,5.8c-0.8,1.4-1.9,2.1-3.3,2.1s-2.5-0.7-3.3-2.1
		C119.9,242.8,119.4,240.8,119.4,238.4L119.4,238.4z M121.4,238.3c0,1.7,0.2,3,0.7,3.9s1.1,1.3,1.9,1.3c0.7,0,1.4-0.4,1.8-1.3
		c0.5-0.9,0.7-2.2,0.7-4c0-1.7-0.2-3.1-0.7-3.9c-0.5-0.9-1.1-1.3-1.9-1.3s-1.4,0.4-1.9,1.3C121.6,235.2,121.4,236.5,121.4,238.3
		L121.4,238.3z M132.4,246l-3.3-15.3h2l2.4,11.3l2.3-11.3h2l-3.3,15.3H132.4L132.4,246z M138.7,246v-15.3h6.9v2.6h-5v3.4h4.7v2.6
		h-4.7v4.2h5.2v2.6h-7.1V246z M147.4,246v-15.3h4c1,0,1.7,0.1,2.2,0.4c0.5,0.3,0.8,0.8,1.1,1.5s0.4,1.5,0.4,2.4
		c0,1.1-0.2,2.1-0.6,2.8c-0.4,0.7-1,1.2-1.8,1.4c0.4,0.4,0.7,0.8,1,1.3s0.6,1.3,1.1,2.5l1.1,3h-2.3l-1.4-3.3c-0.5-1.2-0.8-1.9-1-2.2
		s-0.4-0.5-0.6-0.6c-0.2-0.1-0.5-0.2-1-0.2h-0.4v6.4L147.4,246L147.4,246z M149.3,237.1h1.4c0.9,0,1.5-0.1,1.7-0.2
		c0.2-0.1,0.4-0.3,0.5-0.6s0.2-0.7,0.2-1.2s-0.1-0.9-0.2-1.2c-0.2-0.3-0.4-0.5-0.7-0.6c-0.2,0-0.6-0.1-1.4-0.1h-1.5V237.1
		L149.3,237.1z M158.9,246v-12.7h-2.8v-2.6h7.4v2.6h-2.8V246H158.9L158.9,246z M167.2,246v-6.4l-3.4-8.9h2.2l2.2,6l2.2-6h2.2
		l-3.4,8.9v6.4H167.2L167.2,246z M176.9,246v-15.3h1.8l3.8,10.2v-10.2h1.8V246h-1.9l-3.8-10v10H176.9L176.9,246z M186.3,246v-15.3
		h6.9v2.6h-5v3.4h4.7v2.6h-4.7v4.2h5.2v2.6h-7.1V246z M197.1,246v-12.7h-2.8v-2.6h7.4v2.6H199V246H197.1L197.1,246z M204.3,246
		l-2.2-15.3h1.9l1.4,10.5l1.7-10.5h2.2l1.6,10.7l1.4-10.7h1.9L212,246h-2l-1.9-11.4l-1.9,11.4H204.3L204.3,246z M214.9,238.4
		c0-1.6,0.1-2.9,0.4-3.9c0.2-0.8,0.5-1.5,0.9-2.1s0.8-1.1,1.2-1.4c0.6-0.4,1.3-0.6,2-0.6c1.4,0,2.5,0.7,3.3,2.1
		c0.8,1.4,1.2,3.3,1.2,5.8s-0.4,4.4-1.2,5.8c-0.8,1.4-1.9,2.1-3.3,2.1c-1.4,0-2.5-0.7-3.3-2.1C215.3,242.8,214.9,240.8,214.9,238.4
		L214.9,238.4z M216.8,238.3c0,1.7,0.2,3,0.7,3.9s1.1,1.3,1.9,1.3c0.8,0,1.4-0.4,1.8-1.3c0.5-0.9,0.7-2.2,0.7-4
		c0-1.7-0.2-3.1-0.7-3.9c-0.5-0.9-1.1-1.3-1.9-1.3c-0.8,0-1.4,0.4-1.9,1.3C217.1,235.2,216.8,236.5,216.8,238.3L216.8,238.3z
		 M225.4,246v-15.3h4c1,0,1.7,0.1,2.2,0.4c0.4,0.3,0.8,0.8,1.1,1.5s0.4,1.5,0.4,2.4c0,1.1-0.2,2.1-0.6,2.8c-0.4,0.7-1,1.2-1.9,1.4
		c0.4,0.4,0.7,0.8,1,1.3s0.6,1.3,1.1,2.5l1.1,3h-2.2l-1.4-3.3c-0.5-1.2-0.8-1.9-1-2.2s-0.4-0.5-0.6-0.6c-0.2-0.1-0.5-0.2-0.9-0.2
		h-0.4v6.4L225.4,246L225.4,246z M227.3,237.1h1.4c0.9,0,1.5-0.1,1.7-0.2c0.2-0.1,0.4-0.3,0.5-0.6s0.2-0.7,0.2-1.2s-0.1-0.9-0.3-1.2
		s-0.4-0.5-0.7-0.6c-0.2,0-0.6-0.1-1.4-0.1h-1.5v3.9H227.3z M234.9,246v-15.3h1.9v6.8l3.8-6.8h2.5l-3.5,6l3.7,9.3h-2.4l-2.6-7.2
		l-1.5,2.6v4.6L234.9,246L234.9,246z"/>
	<path class="st0" d="M250.8,230.8v15.1h82v-15.1H250.8z M291.5,244.4h-8.2v-10.8h8v1.8h-5.8v2.4h5.4v1.8h-5.4v3h6.1v1.8H291.5z
		 M301.1,243c-0.3,0.5-0.8,0.9-1.5,1.2c-0.6,0.3-1.4,0.4-2.4,0.4c-1.4,0-2.4-0.3-3.2-1c-0.7-0.6-1.2-1.6-1.3-2.8l2.1-0.2
		c0.1,0.7,0.4,1.2,0.8,1.6c0.4,0.3,0.9,0.5,1.6,0.5s1.2-0.1,1.6-0.4c0.4-0.3,0.5-0.6,0.5-1c0-0.3-0.1-0.5-0.2-0.6
		c-0.1-0.2-0.4-0.3-0.8-0.5c-0.3-0.1-0.8-0.2-1.7-0.5c-1.2-0.3-2-0.6-2.5-1.1c-0.7-0.6-1-1.3-1-2.2c0-0.6,0.2-1.1,0.5-1.6
		s0.8-0.8,1.3-1.1c0.6-0.2,1.3-0.4,2.1-0.4c1.4,0,2.4,0.3,3.1,0.9c0.7,0.6,1,1.4,1.1,2.4l-2.2,0.1c-0.1-0.6-0.3-1-0.6-1.2
		c-0.3-0.2-0.8-0.4-1.4-0.4s-1.1,0.1-1.5,0.4c-0.2,0.2-0.3,0.4-0.3,0.7s0.1,0.5,0.3,0.7c0.3,0.2,0.9,0.5,2,0.7
		c1.1,0.3,1.9,0.5,2.4,0.8s0.9,0.6,1.2,1.1c0.3,0.5,0.4,1,0.4,1.7C301.6,241.9,301.4,242.5,301.1,243z"/>
</g>
</svg>
