<svg width="230.00000000000003" height="290" xmlns="http://www.w3.org/2000/svg" xmlns:xlink="http://www.w3.org/1999/xlink">
 <g>
  <title>background</title>
  <rect fill="none" id="canvas_background" height="292" width="232" y="-1" x="-1"/>
 </g>
 <g>
  <title>Layer 1</title>
  <g stroke="null" id="svg_1">
   <defs stroke="null" transform="translate(0,0.3921568691730499) translate(0,0.3921568691730499) translate(0,0.3921568691730499) translate(0,0.3921568691730499) translate(0,0.3921568691730499) translate(0,0.3921568691730499) translate(0,0.3921568691730499) translate(0.3921568691730499,0) translate(0,-2.381134578399724e-8) translate(0,-0.4313724935054779) translate(0,-0.3921568691730499) translate(0,-0.3921568691730499) translate(0,-0.3921568691730499) translate(0,-0.3921568691730499) translate(1,0) translate(0,1) translate(0,1) translate(-1,0) translate(-1,0) translate(-1,0) translate(-1,0) translate(-1,0) translate(0,1) translate(0,1) translate(1,0) translate(0,-1) translate(0,-1) translate(0,-1) translate(0,1) translate(0,1) translate(0,-0.4390000104904175) translate(1.4609458446502686,2) scale(0.571090579032898) translate(-1.4609458446502686,-2) ">
    <rect stroke="null" height="841.89" width="595.276" y="-173.528" x="-95" id="SVGID_1_"/>
   </defs>
   <clipPath stroke="null" transform="translate(0,0.3921568691730499) translate(0,0.3921568691730499) translate(0,0.3921568691730499) translate(0,0.3921568691730499) translate(0,0.3921568691730499) translate(0,0.3921568691730499) translate(0,0.3921568691730499) translate(0.3921568691730499,0) translate(0,-2.381134578399724e-8) translate(0,-0.4313724935054779) translate(0,-0.3921568691730499) translate(0,-0.3921568691730499) translate(0,-0.3921568691730499) translate(0,-0.3921568691730499) translate(1,0) translate(0,1) translate(0,1) translate(-1,0) translate(-1,0) translate(-1,0) translate(-1,0) translate(-1,0) translate(0,1) translate(0,1) translate(1,0) translate(0,-1) translate(0,-1) translate(0,-1) translate(0,1) translate(0,1) translate(0,-0.4390000104904175) translate(1.4609458446502686,2) scale(0.571090579032898) translate(-1.4609458446502686,-2) " id="SVGID_2_">
    <use stroke="null" x="-2.607843" y="3.306098" id="svg_2" xlink:href="#SVGID_1_"/>
   </clipPath>
   <path stroke="null" id="svg_3" d="m67.682174,27.359673l0,9.570907l0.952008,0c14.984846,0 29.969691,0 44.953966,0.000571c0.944013,0 0.944584,0 0.944584,0.973709c0.000571,6.829672 0.000571,13.659916 0.000571,20.489588c0,0.900039 -0.001713,0.90061 -0.88519,0.90061c-14.8929,0 -29.7858,0 -44.679271,-0.000571l-1.270105,0l0,9.836464l0.82751,0c18.433662,0 36.867323,-0.000571 55.300985,0.001713c1.066797,0 0.97942,-0.136491 0.97942,0.999409c0.001142,7.584083 -0.007995,15.167595 0.013706,22.751106c0.002284,0.650472 -0.161619,0.838361 -0.828081,0.83779c-29.101063,-0.016562 -58.202125,-0.014277 -87.303188,-0.014277l-0.814375,0c-0.016562,-0.292969 -0.042832,-0.535683 -0.042832,-0.777825c-0.001142,-29.694997 0.001142,-59.389423 -0.015419,-89.084419c-0.000571,-0.659039 0.210732,-0.789247 0.818373,-0.788676c28.964001,0.011993 57.928002,0.009709 86.892003,0.009709c0.888617,0 0.890901,0.001713 0.891472,0.902323c0.000571,7.514981 -0.01028,15.029962 0.016562,22.545514c0.002284,0.71729 -0.221583,0.860634 -0.89547,0.860062c-18.2966,-0.017704 -36.5932,-0.013706 -54.8898,-0.013706l-0.967427,0z" fill="#57738F" clip-path="url(#SVGID_2_)"/>
   <path stroke="null" id="svg_4" d="m167.784072,151.257203c0.22501,1.552224 0.477432,3.077607 0.65961,4.610985c0.242713,2.033654 0.520264,4.067878 0.627057,6.109527c0.608783,11.707928 0.147341,23.426136 0.286116,35.138061c0.01028,0.88519 0.000571,0.885761 -0.90061,0.885761c-9.730241,0.000571 -19.460483,0.000571 -29.191295,0c-0.914316,0 -0.914887,-0.001142 -0.915458,-0.943442l0,-87.1627c0,-0.886904 0.000571,-0.889188 0.906321,-0.889188c9.821616,-0.000571 19.643232,0.00514 29.465418,-0.014277c0.60764,-0.001713 0.93716,0.196455 1.241551,0.712721c8.013543,13.550266 16.043648,27.090824 24.069184,40.634237c1.488833,2.512227 2.977666,5.024455 4.453935,7.544678c0.25128,0.428889 0.53397,0.676171 1.135328,0.400334c-0.159905,-0.863489 -0.356361,-1.742968 -0.481429,-2.632156c-0.540823,-3.850293 -1.155887,-7.693732 -1.56593,-11.557731c-0.659039,-6.210039 -0.402619,-12.450917 -0.42432,-18.680373c-0.017704,-5.207775 0.01028,-10.41555 -0.017133,-15.622754c-0.003427,-0.648188 0.193029,-0.797242 0.808093,-0.7961c9.798772,0.016562 19.597544,0.017704 29.396888,-0.002284c0.663036,-0.001713 0.841788,0.187318 0.841216,0.845214c-0.014848,29.122764 -0.014277,58.245528 -0.000571,87.368292c0,0.62306 -0.159905,0.81152 -0.801811,0.809806c-9.844459,-0.019988 -19.68949,-0.018846 -29.533949,-0.001142c-0.537967,0.001142 -0.812662,-0.194742 -1.07879,-0.630484c-5.892513,-9.636011 -11.79816,-19.262885 -17.700952,-28.893186c-3.434539,-5.603541 -6.867935,-11.207082 -10.300761,-16.811764c-0.207306,-0.338086 -0.389484,-0.702441 -0.977707,-0.422036" fill="#57738F" clip-path="url(#SVGID_2_)"/>
   <path stroke="null" id="svg_5" d="m201.487554,2.745098c8.887883,24.980073 17.751208,49.889331 26.614534,74.79916c0.035408,-0.012564 0.070244,-0.024557 0.105081,-0.037121l0,-74.762039l-26.719615,0z" fill="#7B1A3C" clip-path="url(#SVGID_2_)"/>
   <path stroke="null" id="svg_6" d="m137.94973,77.516274c0.03655,0.007424 0.073671,0.014848 0.109649,0.022273c8.632605,-24.90526 17.26521,-49.809949 25.922944,-74.786596l-26.032593,0l0,74.764323z" fill="#7B1A3C" clip-path="url(#SVGID_2_)"/>
   <path stroke="null" id="svg_7" d="m195.93484,82.705203c-0.15705,-0.555671 -0.379204,-0.73842 -0.967427,-0.736707c-7.949581,0.022273 -15.898591,0.014848 -23.848171,0.014848l-0.730996,0c-1.12048,4.128414 -2.232964,8.231129 -3.362581,12.393237l32.263191,0c-0.038263,-0.163332 -0.059393,-0.272981 -0.089661,-0.379204c-1.092496,-3.762916 -2.198128,-7.521834 -3.264354,-11.292174" fill="#7B1A3C" clip-path="url(#SVGID_2_)"/>
   <path stroke="null" id="svg_8" d="m189.412415,57.540668c-2.33576,-7.911318 -4.463644,-15.871178 -5.630382,-24.055477c-0.072529,-0.5077 -0.383773,-0.463726 -0.734422,-0.468865c-0.385486,-0.006282 -0.663036,-0.008566 -0.757837,0.521977c-0.629913,3.541904 -1.181015,7.104367 -1.995962,10.605152c-0.913745,3.921679 -2.071346,7.786249 -3.135858,11.67252c-0.504273,1.840625 -1.038243,3.672684 -1.57107,5.548716l14.913459,0c-0.379204,-1.332925 -0.721287,-2.582472 -1.087928,-3.824023" fill="#7B1A3C" clip-path="url(#SVGID_2_)"/>
   <path stroke="null" id="svg_9" d="m71.94822,258.265871c-0.956006,0 -1.822921,0.02627 -2.685839,-0.023415c-0.165045,-0.01028 -0.422036,-0.298109 -0.452875,-0.488854c-0.700157,-4.278611 -1.374615,-8.561219 -2.0525,-12.843827c-0.973709,-6.151217 -1.946848,-12.301862 -2.920557,-18.453079l-0.176467,-0.00514c-0.650472,10.578311 -1.300944,21.157764 -1.953701,31.773767l-4.725203,0c1.203859,-16.675845 2.404862,-33.311142 3.612719,-50.042954c1.394032,0 2.755512,-0.011993 4.11585,0.019988c0.130209,0.003427 0.342083,0.271839 0.367782,0.43974c0.749271,4.895388 1.477982,9.793061 2.212405,14.690734c0.944584,6.295703 1.89031,12.593118 2.837749,18.888821c0.055396,0.371209 0.12564,0.740133 0.328377,1.113056c0.046258,-0.137633 0.114218,-0.273552 0.13592,-0.415183c1.51339,-9.903282 3.023354,-19.807706 4.533317,-29.710416c0.230721,-1.511677 0.448306,-3.025638 0.711579,-4.531604c0.032552,-0.187889 0.306105,-0.470579 0.475147,-0.47629c1.299231,-0.039405 2.599604,-0.021701 4.013625,-0.021701c1.205001,16.682127 2.407718,33.333986 3.613861,50.04067l-4.726346,0c-0.651043,-10.602297 -1.301515,-21.184605 -1.951417,-31.766342c-0.05768,-0.005711 -0.115931,-0.011993 -0.173612,-0.017133c-1.709274,10.584022 -3.417977,21.167472 -5.139815,31.829162" fill="#7B1A3C" clip-path="url(#SVGID_2_)"/>
   <path stroke="null" id="svg_10" d="m128.114408,258.337258l0,-50.121765c0.258133,-0.012564 0.500275,-0.035408 0.741847,-0.035979c2.101613,-0.002855 4.202656,0.028555 6.303127,-0.008566c3.381427,-0.059393 5.888515,1.469416 7.815946,4.144404c1.7384,2.411144 2.39287,5.205491 2.84346,8.054662c0.904036,5.729752 1.0371,11.506333 0.716148,17.283485c-0.179322,3.228946 -0.565951,6.452752 -0.992555,9.661139c-0.258133,1.943421 -0.856065,3.823451 -1.746395,5.595545c-1.492831,2.971384 -3.839442,4.861694 -7.160905,5.167799c-2.807481,0.259275 -5.645801,0.184462 -8.520671,0.259275m5.038161,-5.160946c3.199821,0.089661 5.300863,-1.100492 6.360807,-3.805177c0.987416,-2.521365 1.319219,-5.172367 1.499684,-7.835934c0.432887,-6.387648 0.512268,-12.77701 -0.246711,-19.149809c-0.224439,-1.882315 -0.56538,-3.74407 -1.362051,-5.489894c-1.054233,-2.311204 -3.22038,-3.70238 -6.251729,-3.31975l0,39.600563z" fill="#7B1A3C" clip-path="url(#SVGID_2_)"/>
   <path stroke="null" id="svg_11" d="m209.214981,258.199054l0,-49.906464c0.070244,-0.041119 0.107365,-0.082808 0.145628,-0.082808c2.740093,0.001713 5.487038,-0.119929 8.217993,0.045687c2.834323,0.172469 4.89082,1.81721 6.516715,4.063881c1.599054,2.210121 2.273512,4.762895 2.723531,7.381917c0.986845,5.7446 1.155316,11.543454 0.856636,17.344592c-0.173612,3.367721 -0.548818,6.731445 -0.985131,10.076893c-0.289543,2.218687 -0.960003,4.364845 -2.074772,6.340248c-1.661302,2.945114 -4.235779,4.515613 -7.553244,4.725775c-2.50309,0.157621 -5.022742,0.058822 -7.534969,0.070815c-0.087377,0 -0.174754,-0.033694 -0.312387,-0.060536m5.054152,-5.031308c3.274062,0.299251 5.591548,-1.326072 6.66634,-4.636684c0.788105,-2.429419 1.069653,-4.949642 1.2307,-7.47786c0.366069,-5.748598 0.426605,-11.501193 -0.122784,-17.242938c-0.224439,-2.342042 -0.535683,-4.672663 -1.497399,-6.856513c-1.094781,-2.484815 -3.62871,-3.861143 -6.276857,-3.378572l0,39.592568z" fill="#7B1A3C" clip-path="url(#SVGID_2_)"/>
   <path stroke="null" id="svg_12" d="m176.365851,258.263587c-1.688715,0 -3.284913,0.018275 -4.878827,-0.02627c-0.170185,-0.00514 -0.421465,-0.351792 -0.480287,-0.580799c-1.043382,-4.086724 -2.063921,-8.17973 -3.086745,-12.272165c-0.840645,-3.36201 -1.672724,-6.725734 -2.52422,-10.08546c-0.05254,-0.205593 -0.243856,-0.375778 -0.369496,-0.563095c-0.071386,0.213017 -0.205593,0.425462 -0.205593,0.638479c-0.011422,7.28426 -0.009709,14.569092 -0.009709,21.853923l0,0.9897l-4.96963,0l0,-50.038957c0.372922,0 0.730996,-0.000571 1.088499,0c2.033082,0.003427 4.065594,-0.028555 6.096963,0.017133c3.541904,0.080524 5.918783,1.803504 7.172327,5.122111c0.909747,2.409431 1.139326,4.924514 1.149034,7.469865c0.009709,2.674988 -0.097656,5.341981 -0.865202,7.934161c-0.651043,2.198699 -1.974831,3.898264 -3.91197,5.087846c-0.508842,0.312387 -0.535683,0.582512 -0.400906,1.085643c2.031369,7.576659 4.043892,15.157315 6.059842,22.7374c0.046258,0.174754 0.076526,0.352934 0.13592,0.630484m-11.505191,-44.688409l0,16.439413c2.517938,0.207306 4.470497,-1.196435 5.086704,-3.658406c0.583083,-2.331192 0.589937,-4.705786 0.334659,-7.071244c-0.116502,-1.074792 -0.358645,-2.169573 -0.752697,-3.17355c-0.754982,-1.915438 -2.638438,-2.881723 -4.668665,-2.536213" fill="#7B1A3C" clip-path="url(#SVGID_2_)"/>
   <path stroke="null" id="svg_13" d="m115.218611,258.263016c-1.479696,0 -2.957678,0.013706 -4.434518,-0.022273c-0.141059,-0.003427 -0.368925,-0.30382 -0.395195,-0.489425c-0.396337,-2.801199 -0.764119,-5.606396 -1.141039,-8.410451c-0.045116,-0.336943 -0.10451,-0.671603 -0.16733,-1.070795l-1.185013,0c-2.054784,-0.000571 -4.109568,0.010851 -6.164352,-0.009709c-0.446022,-0.004569 -0.650472,0.118787 -0.714434,0.584226c-0.400906,2.915417 -0.836077,5.826266 -1.234127,8.742255c-0.066818,0.491709 -0.210732,0.708723 -0.756124,0.693304c-1.364335,-0.039405 -2.730955,-0.013135 -4.17867,-0.013135c0.206164,-1.304371 0.394052,-2.533929 0.593934,-3.761774c0.985702,-6.03243 1.977116,-12.06486 2.961676,-18.09786c1.171878,-7.181464 2.338045,-14.36407 3.508209,-21.546105c0.334088,-2.049073 0.684738,-4.094719 0.998837,-6.146648c0.059965,-0.390055 0.175896,-0.553387 0.590508,-0.543678c1.049664,0.024557 2.100471,0.019988 3.150707,0.001713c0.378633,-0.006853 0.493422,0.14163 0.552245,0.505415c0.939444,5.83369 1.89545,11.663383 2.847458,17.493647c1.124477,6.889066 2.248384,13.77756 3.37229,20.666626c0.605927,3.714944 1.210141,7.429317 1.813213,11.144262c0.01028,0.063391 -0.007424,0.131351 -0.018275,0.280405m-10.119725,-38.558894c-0.059393,-0.002284 -0.118787,-0.00514 -0.17818,-0.007424c-1.024536,7.866773 -2.049073,15.734688 -3.075894,23.621449l6.532705,0c-1.09992,-7.918742 -2.18899,-15.766098 -3.278631,-23.614024" fill="#7B1A3C" clip-path="url(#SVGID_2_)"/>
   <rect stroke="null" id="svg_14" height="49.99898" width="4.946216" fill="#7B1A3C" clip-path="url(#SVGID_2_)" y="208.21378" x="189.386145"/>
   <path stroke="null" id="svg_15" d="m61.825069,275.607037l-1.459708,0l-0.951437,-2.200983c-0.094801,-0.197597 -0.23586,-0.37692 -0.42432,-0.419752l-0.574517,0l0,2.621306l-1.375186,0l0,-5.850252l2.184993,0c1.516817,0 2.270656,0.264986 2.270656,1.489975c0,1.019397 -0.65961,1.336352 -1.35634,1.422016c0.319811,0.128495 0.451733,0.308389 0.602501,0.599645l1.083359,2.338045zm-3.409982,-3.289482l0.65961,0c0.715576,0 1.082788,-0.214159 1.082788,-0.976565c0,-0.711008 -0.367211,-0.84807 -1.082788,-0.84807l-0.65961,0l0,1.824634z" fill="#57738F" clip-path="url(#SVGID_2_)"/>
   <polygon stroke="null" id="svg_16" points="64.92609405517578,270.5100462734699 64.92609405517578,272.1976378262043 67.12079620361328,272.1976378262043 67.12079620361328,272.9514525234699 64.92609405517578,272.9514525234699 64.92609405517578,274.8526366055012 67.24357604980469,274.8526366055012 67.24357604980469,275.6070311367512 63.541194915771484,275.6070311367512 63.541194915771484,269.75678089261055 67.24357604980469,269.75678089261055 67.24357604980469,270.5100462734699 " fill="#57738F" clip-path="url(#SVGID_2_)"/>
   <path stroke="null" id="svg_17" d="m74.347943,272.66021c0,2.312917 -1.07365,2.946827 -2.760081,2.946827l-2.345469,0l0,-5.850252l2.345469,0c1.696139,0 2.760081,0.616207 2.760081,2.903425m-1.440862,0c0,-1.755532 -0.386057,-2.167289 -1.403741,-2.167289l-0.876053,0l0,4.360277l0.876053,0c1.007975,0 1.403741,-0.445451 1.403741,-2.192988" fill="#57738F" clip-path="url(#SVGID_2_)"/>
   <path stroke="null" id="svg_18" d="m84.223812,272.66021c0,2.312917 -1.07365,2.946827 -2.760081,2.946827l-2.345469,0l0,-5.850252l2.345469,0c1.69671,0 2.760081,0.616207 2.760081,2.903425m-1.440862,0c0,-1.755532 -0.386057,-2.167289 -1.403741,-2.167289l-0.876053,0l0,4.360277l0.876053,0c1.007975,0 1.403741,-0.445451 1.403741,-2.192988" fill="#57738F" clip-path="url(#SVGID_2_)"/>
   <polygon stroke="null" id="svg_19" points="87.61780548095703,270.5100462734699 87.61780548095703,272.1976378262043 89.81193542480469,272.1976378262043 89.81193542480469,272.9514525234699 87.61780548095703,272.9514525234699 87.61780548095703,274.8526366055012 89.93528747558594,274.8526366055012 89.93528747558594,275.6070311367512 86.23291015625,275.6070311367512 86.23291015625,269.75678089261055 89.93528747558594,269.75678089261055 89.93528747558594,270.5100462734699 " fill="#57738F" clip-path="url(#SVGID_2_)"/>
   <polygon stroke="null" id="svg_20" points="98.3885726928711,274.8468993008137 98.3885726928711,275.6007445156574 94.6958999633789,275.6007445156574 94.6958999633789,269.7504942715168 96.08079528808594,269.7504942715168 96.08079528808594,274.8468993008137 " fill="#57738F" clip-path="url(#SVGID_2_)"/>
   <path stroke="null" id="svg_21" d="m106.691658,272.66021c0,-2.287218 1.093067,-2.997654 2.882294,-2.997654c0.687593,0 1.093067,0.06796 1.290665,0.102796l0,0.779539c-0.254135,-0.068531 -0.555671,-0.129066 -1.007975,-0.129066c-1.149034,0 -1.714414,0.513982 -1.714414,2.244386c0,1.730404 0.574517,2.270656 1.714414,2.270656c0.442595,0 0.75384,-0.077668 1.007975,-0.154766l0,0.770972c-0.197597,0.042832 -0.603072,0.154766 -1.290665,0.154766c-1.780089,-0.000571 -2.882294,-0.728712 -2.882294,-3.041628" fill="#57738F" clip-path="url(#SVGID_2_)"/>
   <polygon stroke="null" id="svg_22" points="117.54524230957031,269.75678089261055 117.54524230957031,275.6070311367512 116.16034698486328,275.6070311367512 116.16034698486328,272.9520323574543 114.14439392089844,272.9520323574543 114.14439392089844,275.6070311367512 112.7594985961914,275.6070311367512 112.7594985961914,269.75678089261055 114.13468933105469,269.75678089261055 114.13468933105469,272.1970579922199 116.16034698486328,272.1970579922199 116.16034698486328,269.75678089261055 " fill="#57738F" clip-path="url(#SVGID_2_)"/>
   <path stroke="null" id="svg_23" d="m122.681623,274.287818l-2.101042,0l-0.433458,1.319219l-0.941728,0l1.967978,-5.850252l1.497971,0l1.931428,5.850252l-1.516245,0l-0.404903,-1.319219zm-0.23586,-0.75384l-0.79096,-2.535071l-0.829224,2.535071l1.620184,0z" fill="#57738F" clip-path="url(#SVGID_2_)"/>
   <path stroke="null" id="svg_24" d="m128.761453,272.66021c0,-2.287218 1.092496,-2.997654 2.882865,-2.997654c0.687593,0 1.092496,0.06796 1.290665,0.102796l0,0.779539c-0.254706,-0.068531 -0.556242,-0.129066 -1.008546,-0.129066c-1.149034,0 -1.714414,0.513982 -1.714414,2.244386c0,1.730404 0.574517,2.270656 1.714414,2.270656c0.442595,0 0.753268,-0.077668 1.008546,-0.154766l0,0.770972c-0.198168,0.042832 -0.603072,0.154766 -1.290665,0.154766c-1.781232,-0.000571 -2.882865,-0.728712 -2.882865,-3.041628" fill="#57738F" clip-path="url(#SVGID_2_)"/>
   <path stroke="null" id="svg_25" d="m134.377558,272.685909c0,-2.355178 1.092496,-3.023354 2.665851,-3.023354s2.665851,0.668176 2.665851,3.023354c0,2.339187 -1.092496,3.015358 -2.665851,3.015358s-2.665851,-0.676742 -2.665851,-3.015358m3.881132,0c0,-1.816068 -0.367782,-2.270656 -1.215281,-2.270656s-1.215281,0.454588 -1.215281,2.270656c0,1.798364 0.367782,2.261519 1.215281,2.261519s1.215281,-0.463154 1.215281,-2.261519" fill="#57738F" clip-path="url(#SVGID_2_)"/>
   <polygon stroke="null" id="svg_26" points="146.49322509765625,269.7647764980793 146.49322509765625,275.6064513027668 145.29737854003906,275.6064513027668 142.6315155029297,271.5631468594074 142.6315155029297,275.6064513027668 141.71778869628906,275.6064513027668 141.71778869628906,269.7647764980793 143.03700256347656,269.7647764980793 145.58006286621094,273.6196348965168 145.58006286621094,269.7647764980793 " fill="#57738F" clip-path="url(#SVGID_2_)"/>
   <polygon stroke="null" id="svg_27" points="152.87289428710938,270.5100462734699 151.17788696289062,270.5100462734699 151.17788696289062,275.6070311367512 149.80213928222656,275.6070311367512 149.80213928222656,270.5100462734699 148.10714721679688,270.5100462734699 148.10714721679688,269.75678089261055 152.87289428710938,269.75678089261055 " fill="#57738F" clip-path="url(#SVGID_2_)"/>
   <path stroke="null" id="svg_28" d="m159.270825,275.607037l-1.460279,0l-0.951437,-2.200983c-0.09423,-0.197597 -0.235289,-0.37692 -0.423749,-0.419752l-0.574517,0l0,2.621306l-1.375186,0l0,-5.850252l2.185564,0c1.516245,0 2.270085,0.264986 2.270085,1.489975c0,1.019397 -0.659039,1.336352 -1.35634,1.422016c0.320382,0.128495 0.452304,0.308389 0.603072,0.599645l1.082788,2.338045zm-3.409411,-3.289482l0.659039,0c0.716148,0 1.083359,-0.214159 1.083359,-0.976565c0,-0.711008 -0.367782,-0.84807 -1.083359,-0.84807l-0.659039,0l0,1.824634z" fill="#57738F" clip-path="url(#SVGID_2_)"/>
   <path stroke="null" id="svg_29" d="m163.898372,274.287818l-2.101042,0l-0.433458,1.319219l-0.941728,0l1.968549,-5.850252l1.497399,0l1.931428,5.850252l-1.516245,0l-0.404903,-1.319219zm-0.23586,-0.75384l-0.79096,-2.535071l-0.829224,2.535071l1.620184,0z" fill="#57738F" clip-path="url(#SVGID_2_)"/>
   <polygon stroke="null" id="svg_30" points="173.93414306640625,274.8531859219074 173.93414306640625,275.6070311367512 170.24147033691406,275.6070311367512 170.24147033691406,269.75678089261055 171.62635803222656,269.75678089261055 171.62635803222656,274.8531859219074 " fill="#57738F" clip-path="url(#SVGID_2_)"/>
   <path stroke="null" id="svg_31" d="m178.524002,274.287818l-2.101042,0l-0.433458,1.319219l-0.941728,0l1.968549,-5.850252l1.497971,0l1.930857,5.850252l-1.516245,0l-0.404903,-1.319219zm-0.23586,-0.75384l-0.79096,-2.535071l-0.829224,2.535071l1.620184,0z" fill="#57738F" clip-path="url(#SVGID_2_)"/>
   <path stroke="null" id="svg_32" d="m189.276495,271.503751c0,1.369475 -0.734994,1.824063 -2.279794,1.824063l-0.744702,0l0,2.278651l-1.384324,0l0,-5.850823l2.129026,0c1.553937,0.000571 2.279794,0.428889 2.279794,1.748108m-1.300373,0c0,-0.762406 -0.244998,-1.011401 -1.111342,-1.011401l-0.61278,0l0,2.082196l0.584226,0c0.857207,0 1.139897,-0.264986 1.139897,-1.070795" fill="#57738F" clip-path="url(#SVGID_2_)"/>
   <path stroke="null" id="svg_33" d="m190.8133,272.685909c0,-2.355178 1.092496,-3.023354 2.665851,-3.023354s2.665851,0.668176 2.665851,3.023354c0,2.339187 -1.092496,3.015358 -2.665851,3.015358s-2.665851,-0.676742 -2.665851,-3.015358m3.881132,0c0,-1.816068 -0.367782,-2.270656 -1.215281,-2.270656s-1.215281,0.454588 -1.215281,2.270656c0,1.798364 0.367782,2.261519 1.215281,2.261519s1.215281,-0.463154 1.215281,-2.261519" fill="#57738F" clip-path="url(#SVGID_2_)"/>
   <path stroke="null" id="svg_34" d="m202.816482,273.8595c0,1.38775 -0.791532,1.747537 -2.5345,1.747537l-2.129026,0l0,-5.842257l2.251239,0c1.497399,0 2.213547,0.273552 2.213547,1.38775c0,0.693875 -0.310673,1.10506 -1.111342,1.250688c0.924025,0.1205 1.310082,0.513982 1.310082,1.456281m-3.27806,-3.340309l0,1.609904l0.791532,0c0.697302,0 0.961145,-0.222725 0.961145,-0.856636c0,-0.591079 -0.254706,-0.753268 -0.961145,-0.753268l-0.791532,0zm1.884028,3.306043c0,-0.873197 -0.358074,-1.002264 -1.149605,-1.002264l-0.734422,0l0,2.038222l0.734422,-0.008566c0.782394,-0.007995 1.149605,-0.153623 1.149605,-1.027392" fill="#57738F" clip-path="url(#SVGID_2_)"/>
   <path stroke="null" id="svg_35" d="m209.516517,275.607037l-1.460279,0l-0.951437,-2.200983c-0.09423,-0.197597 -0.235289,-0.37692 -0.423749,-0.419752l-0.574517,0l0,2.621306l-1.375186,0l0,-5.850252l2.185564,0c1.516245,0 2.270085,0.264986 2.270085,1.489975c0,1.019397 -0.659039,1.336352 -1.35634,1.422016c0.320382,0.128495 0.452304,0.308389 0.603072,0.599645l1.082788,2.338045zm-3.409982,-3.289482l0.659039,0c0.716148,0 1.083359,-0.214159 1.083359,-0.976565c0,-0.711008 -0.367782,-0.84807 -1.083359,-0.84807l-0.659039,0l0,1.824634z" fill="#57738F" clip-path="url(#SVGID_2_)"/>
   <polygon stroke="null" id="svg_36" points="212.61753845214844,270.5100462734699 212.61753845214844,272.1976378262043 214.81166076660156,272.1976378262043 214.81166076660156,272.9514525234699 212.61753845214844,272.9514525234699 212.61753845214844,274.8526366055012 214.9344482421875,274.8526366055012 214.9344482421875,275.6070311367512 211.23265075683594,275.6070311367512 211.23265075683594,269.75678089261055 214.9344482421875,269.75678089261055 214.9344482421875,270.5100462734699 " fill="#57738F" clip-path="url(#SVGID_2_)"/>
   <polygon stroke="null" id="svg_37" points="218.24278259277344,274.8788817226887 220.84295654296875,274.78522327542305 220.84295654296875,275.6070311367512 216.33990478515625,275.6070311367512 219.05258178710938,270.4763548672199 216.57518005371094,270.5608885586262 216.57518005371094,269.75678089261055 220.95545959472656,269.75678089261055 " fill="#57738F" clip-path="url(#SVGID_2_)"/>
   <path stroke="null" id="svg_38" d="m225.498486,274.287818l-2.101042,0l-0.433458,1.319219l-0.941728,0l1.968549,-5.850252l1.497971,0l1.930857,5.850252l-1.516245,0l-0.404903,-1.319219zm-0.23586,-0.75384l-0.79096,-2.535071l-0.829224,2.535071l1.620184,0z" fill="#57738F" clip-path="url(#SVGID_2_)"/>
   <polygon stroke="null" id="svg_39" points="59.71488952636719,283.8478758633137 59.71488952636719,285.88666370511055 58.33970642089844,285.88666370511055 58.33970642089844,283.8387511074543 56.38029479980469,280.0364134609699 57.88740158081055,280.0364134609699 59.291141510009766,282.8033507168293 60.71372604370117,280.0364134609699 61.65545654296875,280.0364134609699 " fill="#57738F" clip-path="url(#SVGID_2_)"/>
   <polygon stroke="null" id="svg_40" points="69.90086364746094,285.1328184902668 69.90086364746094,285.88666370511055 66.20819091796875,285.88666370511055 66.20819091796875,280.0364134609699 67.59308624267578,280.0364134609699 67.59308624267578,285.1328184902668 " fill="#57738F" clip-path="url(#SVGID_2_)"/>
   <path stroke="null" id="svg_41" d="m74.490144,284.567448l-2.100471,0l-0.433458,1.319219l-0.941728,0l1.968549,-5.850252l1.497971,0l1.930857,5.850252l-1.516245,0l-0.405474,-1.319219zm-0.235289,-0.75384l-0.791532,-2.535071l-0.828652,2.535071l1.620184,0z" fill="#57738F" clip-path="url(#SVGID_2_)"/>
   <polygon stroke="null" id="svg_42" points="82.39689636230469,280.7896788418293 82.39689636230469,282.4772703945637 84.59102630615234,282.4772703945637 84.59102630615234,283.2310850918293 82.39689636230469,283.2310850918293 82.39689636230469,285.1322386562824 84.7143783569336,285.1322386562824 84.7143783569336,285.88666370511055 81.01200103759766,285.88666370511055 81.01200103759766,280.0364134609699 84.7143783569336,280.0364134609699 84.7143783569336,280.7896788418293 " fill="#57738F" clip-path="url(#SVGID_2_)"/>
   <polygon stroke="null" id="svg_43" points="89.92501068115234,285.88666370511055 88.5498275756836,283.7450926601887 87.14608001708984,285.88666370511055 86.09127807617188,285.88666370511055 88.02213287353516,282.90558460354805 86.18551635742188,280.0364134609699 87.74915313720703,280.0364134609699 88.96443939208984,281.93756702542305 90.2265396118164,280.0364134609699 91.2813491821289,280.0364134609699 89.4915542602539,282.76849964261055 91.4795150756836,285.88666370511055 " fill="#57738F" clip-path="url(#SVGID_2_)"/>
   <path stroke="null" id="svg_44" d="m92.602282,282.93984c0,-2.287218 1.093067,-2.997654 2.882294,-2.997654c0.687593,0 1.093067,0.06796 1.290665,0.102796l0,0.779539c-0.254135,-0.068531 -0.555671,-0.129066 -1.007975,-0.129066c-1.149034,0 -1.714414,0.513982 -1.714414,2.244386c0,1.730404 0.574517,2.270656 1.714414,2.270656c0.442595,0 0.75384,-0.077668 1.007975,-0.154766l0,0.770972c-0.197597,0.042832 -0.603072,0.154766 -1.290665,0.154766c-1.780089,-0.000571 -2.882294,-0.728712 -2.882294,-3.041628" fill="#57738F" clip-path="url(#SVGID_2_)"/>
   <polygon stroke="null" id="svg_45" points="102.36335754394531,285.1328184902668 102.36335754394531,285.88666370511055 98.67069244384766,285.88666370511055 98.67069244384766,280.0364134609699 100.05558776855469,280.0364134609699 100.05558776855469,285.1328184902668 " fill="#57738F" clip-path="url(#SVGID_2_)"/>
   <path stroke="null" id="svg_46" d="m110.552801,285.792437l0,-0.821799c0.169614,0.077097 0.603072,0.264986 1.45057,0.264986c0.876053,0 1.337494,-0.282119 1.337494,-0.916029c0,-0.556813 -0.452304,-0.753268 -1.092496,-0.959432c-0.810378,-0.256991 -1.68643,-0.591079 -1.68643,-1.756104c0,-1.027963 0.744131,-1.661302 2.449407,-1.661302c0.744131,0 1.215281,0.06796 1.412878,0.110792l0,0.788105c-0.169614,-0.068531 -0.517979,-0.16219 -1.234127,-0.16219c-0.800669,0 -1.271248,0.282119 -1.271248,0.770972c0,0.547676 0.499133,0.719574 1.139326,0.916029c0.80124,0.248995 1.620755,0.583083 1.620755,1.730404c0,1.165025 -0.762977,1.884599 -2.515654,1.884599c-0.941728,-0.000571 -1.440862,-0.146199 -1.610475,-0.189031" fill="#57738F" clip-path="url(#SVGID_2_)"/>
   <rect stroke="null" id="svg_47" height="5.850252" width="1.384895" fill="#57738F" clip-path="url(#SVGID_2_)" y="280.036415" x="116.545826"/>
   <path stroke="null" id="svg_48" d="m119.938104,282.964968c0,-2.355178 1.092496,-3.023354 2.665851,-3.023354s2.665851,0.668176 2.665851,3.023354c0,2.339758 -1.092496,3.015929 -2.665851,3.015929s-2.665851,-0.676742 -2.665851,-3.015929m3.881132,0c0,-1.815497 -0.367782,-2.269514 -1.215281,-2.269514s-1.215281,0.454017 -1.215281,2.269514c0,1.799506 0.367782,2.26209 1.215281,2.26209s1.215281,-0.462583 1.215281,-2.26209m-0.998266,-4.70236l1.460279,0l-1.252973,1.353485l-0.998266,0l0.79096,-1.353485z" fill="#57738F" clip-path="url(#SVGID_2_)"/>
   <polygon stroke="null" id="svg_49" points="132.05435180664062,280.0444090664387 132.05435180664062,285.8860838711262 130.85848999023438,285.8860838711262 128.19264221191406,281.8427794277668 128.19264221191406,285.8860838711262 127.27890014648438,285.8860838711262 127.27890014648438,280.0444090664387 128.59811401367188,280.0444090664387 131.14117431640625,283.8992674648762 131.14117431640625,280.0444090664387 " fill="#57738F" clip-path="url(#SVGID_2_)"/>
   <path stroke="null" id="svg_50" d="m136.889785,285.792437l0,-0.821799c0.169614,0.077097 0.603072,0.264986 1.45057,0.264986c0.876053,0 1.338065,-0.282119 1.338065,-0.916029c0,-0.556813 -0.452304,-0.753268 -1.092496,-0.959432c-0.810378,-0.256991 -1.68643,-0.591079 -1.68643,-1.756104c0,-1.027963 0.744702,-1.661302 2.449407,-1.661302c0.744131,0 1.215281,0.06796 1.412878,0.110792l0,0.788105c-0.169614,-0.068531 -0.517979,-0.16219 -1.233556,-0.16219c-0.800669,0 -1.27239,0.282119 -1.27239,0.770972c0,0.547676 0.499704,0.719574 1.139897,0.916029c0.800669,0.248995 1.620184,0.583083 1.620184,1.730404c0,1.165025 -0.762977,1.884599 -2.514512,1.884599c-0.942299,-0.000571 -1.442004,-0.146199 -1.611618,-0.189031" fill="#57738F" clip-path="url(#SVGID_2_)"/>
   <path stroke="null" id="svg_51" d="m142.562428,282.965539c0,-2.355178 1.092496,-3.023354 2.665851,-3.023354s2.665851,0.668176 2.665851,3.023354c0,2.339187 -1.092496,3.015358 -2.665851,3.015358s-2.665851,-0.676742 -2.665851,-3.015358m3.881132,0c0,-1.816068 -0.367782,-2.270656 -1.215281,-2.270656s-1.215281,0.454588 -1.215281,2.270656c0,1.798364 0.367782,2.261519 1.215281,2.261519s1.215281,-0.463154 1.215281,-2.261519" fill="#57738F" clip-path="url(#SVGID_2_)"/>
   <path stroke="null" id="svg_52" d="m149.638812,282.93984c0,-2.287218 1.092496,-2.997654 2.882865,-2.997654c0.687593,0 1.092496,0.06796 1.290665,0.102796l0,0.779539c-0.254706,-0.068531 -0.556242,-0.129066 -1.008546,-0.129066c-1.149034,0 -1.714414,0.513982 -1.714414,2.244386c0,1.730404 0.574517,2.270656 1.714414,2.270656c0.442595,0 0.753268,-0.077668 1.008546,-0.154766l0,0.770972c-0.198168,0.042832 -0.603072,0.154766 -1.290665,0.154766c-1.78066,-0.000571 -2.882865,-0.728712 -2.882865,-3.041628" fill="#57738F" clip-path="url(#SVGID_2_)"/>
   <rect stroke="null" id="svg_53" height="5.850252" width="1.384895" fill="#57738F" clip-path="url(#SVGID_2_)" y="280.036415" x="155.70722"/>
   <path stroke="null" id="svg_54" d="m162.22679,284.567448l-2.101042,0l-0.433458,1.319219l-0.941728,0l1.968549,-5.850252l1.497971,0l1.930857,5.850252l-1.516245,0l-0.404903,-1.319219zm-0.23586,-0.75384l-0.79096,-2.535071l-0.829224,2.535071l1.620184,0z" fill="#57738F" clip-path="url(#SVGID_2_)"/>
   <polygon stroke="null" id="svg_55" points="169.5013427734375,285.1328184902668 169.5013427734375,285.88666370511055 165.8086700439453,285.88666370511055 165.8086700439453,280.0364134609699 167.1935577392578,280.0364134609699 167.1935577392578,285.1328184902668 " fill="#57738F" clip-path="url(#SVGID_2_)"/>
   <path stroke="null" id="svg_56" d="m102.506706,275.054221c0.574517,0 0.809806,-0.179894 0.809806,-0.891472l0,-4.412817l1.375757,0l0,4.385976c0,1.165025 -0.555671,1.54994 -1.582492,1.54994l-1.664729,0c-1.026821,0 -1.582492,-0.384915 -1.582492,-1.54994l0,-4.385976l1.375186,0l0,4.412817c0,0.711008 0.235289,0.891472 0.810378,0.891472l0.458586,0z" fill="#57738F" clip-path="url(#SVGID_2_)"/>
   <path stroke="null" id="svg_57" d="m106.483781,285.340134c0.574517,0 0.809806,-0.179894 0.809806,-0.891472l0,-4.412817l1.375757,0l0,4.385976c0,1.165025 -0.555671,1.54994 -1.582492,1.54994l-1.664729,0c-1.026821,0 -1.582492,-0.384915 -1.582492,-1.54994l0,-4.385976l1.375186,0l0,4.412817c0,0.711008 0.235289,0.891472 0.810378,0.891472l0.458586,0z" fill="#57738F" clip-path="url(#SVGID_2_)"/>
   <path stroke="null" id="svg_58" d="m61.870756,182.391348l0,18.498766l-2.269514,0c-0.258133,-1.455139 -0.535112,-2.909135 -0.772686,-4.369414c-0.479716,-2.950254 -0.945155,-5.902792 -1.398601,-8.857615c-0.063962,-0.41918 -0.218157,-0.590508 -0.656754,-0.564237c-0.589365,0.035408 -1.182157,0.007995 -1.840625,0.007995c-0.040547,0.411185 -0.091946,0.768117 -0.109078,1.126762c-0.150197,3.143854 0.373493,6.232311 0.726998,9.339615c0.322666,2.831467 0.496849,5.681209 0.671603,8.527525c0.064533,1.04738 -0.019417,1.053091 -1.048522,1.053091c-1.275245,0.000571 -2.549919,0 -3.898264,0c0.099941,1.210712 0.187889,2.3409 0.28783,3.469946c0.289543,3.274633 0.589365,6.548696 0.870913,9.824471c0.03141,0.359216 0.002855,0.730425 -0.051398,1.087928c-0.106794,0.697302 -0.49742,1.175304 -1.206714,1.320933c-0.725285,0.149055 -1.412307,0.014848 -1.818923,-0.637337c-0.357503,-0.573946 -0.625344,-1.21471 -0.85892,-1.853189c-1.391748,-3.810316 -2.182137,-7.769116 -2.836607,-11.757613c-1.147321,-6.991862 -1.718983,-14.045973 -2.222685,-21.106366c-0.039976,-0.568806 -0.111363,-1.134757 -0.174183,-1.701279c-0.006853,-0.063391 -0.053683,-0.122213 -0.123927,-0.272981c-0.845785,0.281548 -1.695568,0.563666 -2.603031,0.865773c0.262702,1.38775 0.542536,2.723531 0.765261,4.067878c1.765241,10.654837 4.521895,21.098941 6.705746,31.664117c0.516837,2.500806 0.873769,5.034163 1.278672,7.556671c0.07881,0.491138 0.084521,1.005691 0.040547,1.501968c-0.068531,0.781252 -0.618491,1.135328 -1.29866,0.716148c-0.881193,-0.543107 -1.766383,-1.164454 -2.449979,-1.930857c-3.008505,-3.373432 -6.130086,-6.670909 -8.873034,-10.252218c-9.544637,-12.464623 -18.32801,-25.448938 -25.902955,-39.216219c-2.918273,-5.30486 -5.412797,-10.807889 -7.192315,-16.613596c-1.379755,-4.499052 -2.025658,-9.089478 -1.654449,-13.789553c0.625915,-7.931306 4.122132,-14.37949 10.20596,-19.452487c4.584144,-3.822309 9.827327,-6.460177 15.441718,-8.368761c2.825185,-0.960574 5.715475,-1.730976 8.587489,-2.550491c0.446022,-0.127924 0.599074,-0.291256 0.542536,-0.740704c-0.086235,-0.679027 -0.085664,-1.370617 -0.197026,-2.044504c-0.158192,-0.958861 0.24614,-1.613331 0.961717,-2.184993c0.435742,-0.347794 0.84293,-0.750984 1.193008,-1.186155c2.9691,-3.68639 6.730302,-5.981032 11.47835,-6.499582c6.647494,-0.725285 13.312121,-0.76469 19.97732,-0.321524c4.282608,0.284403 8.56693,0.581941 12.837545,1.003406c7.118644,0.70187 14.165902,1.854331 21.015562,3.978217c3.794897,1.177018 7.2894,3.001081 10.562891,5.255747c0.516837,0.355218 1.100492,0.643619 1.690999,0.855494c3.397989,1.218707 6.630933,2.723531 9.28422,5.251749c2.268372,2.161007 3.62357,4.778886 3.899406,7.925595c0.185033,2.113606 -0.391768,4.06902 -1.243835,5.962757c-1.142181,2.53964 -2.748659,4.780599 -4.470497,6.949601c-0.247282,0.311244 -0.446022,0.689306 -0.565951,1.069082c-2.023945,6.408207 -5.632666,11.838137 -10.271064,16.623305c-6.705174,6.917049 -14.746701,11.814151 -23.583757,15.491403c-6.44647,2.681841 -13.135654,4.447653 -20.08754,5.115829c-2.15244,0.207306 -4.333435,0.11536 -6.501295,0.158763c-0.226152,0.004569 -0.452875,0.001142 -0.843501,0.001142m-21.053254,-62.850231c0.159334,0.962859 0.33009,1.818352 0.436313,2.68127c0.139346,1.132473 0.202166,2.274654 0.343225,3.407126c0.560811,4.505905 1.102776,9.014665 1.720125,13.513145c0.809806,5.900508 1.708703,11.789594 2.522507,17.689531c0.792103,5.741745 1.543658,11.489771 2.270085,17.240082c0.150768,1.198148 0.359787,2.348896 1.086785,3.332885c0.162761,0.221012 0.483143,0.440882 0.74356,0.456872c3.600155,0.217014 7.202594,0.407759 10.805605,0.575659c0.440882,0.020559 0.909747,-0.065675 1.330641,-0.206735c3.698383,-1.234127 7.37335,-2.541924 11.085439,-3.733219c7.924453,-2.541924 15.61533,-5.627527 22.953273,-9.574334c7.801668,-4.195802 15.033959,-9.178568 21.384487,-15.386322c0.284974,-0.278121 0.530543,-0.631055 0.692162,-0.994269c1.687573,-3.795468 2.439128,-7.781109 2.299782,-11.926656c-0.105652,-3.127863 -0.641906,-6.175774 -1.998246,-9.026658c-2.072488,-4.356279 -5.510453,-7.403047 -9.618879,-9.730241c-1.37176,-0.776683 -2.865733,-1.555651 -4.389973,-1.800649c-3.306043,-0.532256 -6.661201,-0.828081 -10.00722,-1.028534c-8.794224,-0.526546 -17.57417,-0.197597 -26.343266,0.614493c-7.730853,0.716148 -15.431439,1.642457 -23.068062,3.059332c-1.471129,0.271268 -2.935977,0.577373 -4.248343,0.837219m-3.982215,0.912032c-1.327215,0.356361 -2.563055,0.67046 -3.789186,1.019968c-5.973036,1.702421 -11.721063,3.929103 -16.932265,7.379061c-4.472781,2.961105 -8.205429,6.622937 -10.61429,11.483489c-3.002223,6.056416 -3.395133,12.438353 -2.138163,18.972771c0.979991,5.096412 2.899998,9.880438 5.092415,14.560525c3.629281,7.746273 7.987844,15.081931 12.675926,22.221706c5.062147,7.70801 10.023782,15.497114 15.887169,22.636888c3.02678,3.685819 6.268861,7.195741 9.444125,10.757633c0.527688,0.59165 1.211854,1.043382 1.824063,1.559648c0.055396,-0.043403 0.110792,-0.086806 0.166187,-0.13078c0,-0.286116 0.042832,-0.580228 -0.006282,-0.857207c-0.719003,-4.041037 -1.368904,-8.097493 -2.198128,-12.116258c-1.203288,-5.830264 -2.564197,-11.627404 -3.806319,-17.450244c-0.561382,-2.631585 -0.998837,-5.290583 -1.49226,-7.936446c0.039976,1.350058 0.191886,2.684697 0.289543,4.023333c0.017133,0.23586 -0.1936,0.487711 -0.299823,0.732138c-0.197026,-0.171898 -0.506557,-0.307818 -0.574517,-0.520835c-0.634482,-1.996533 -1.263823,-3.996492 -1.817781,-6.01701c-0.304962,-1.1102 -0.462583,-2.26209 -0.696159,-3.443105c-0.313529,0.087377 -0.551673,0.149055 -0.786963,0.222154c-5.321422,1.648739 -10.706806,3.041057 -16.196129,4.010198c-0.28269,0.049685 -0.698444,0.260417 -0.736707,-0.258704c-0.010851,-0.145628 0.293541,-0.420894 0.487711,-0.459157c5.520733,-1.058802 10.898122,-2.661853 16.270942,-4.280895c0.252422,-0.076526 0.500275,-0.166758 0.797814,-0.266699c-0.442024,-2.241531 -0.729283,-4.448796 -1.31979,-6.57211c-3.007363,-10.810745 -6.092965,-21.599788 -9.150584,-32.396255c-0.06796,-0.241 -0.172469,-0.484285 -0.174183,-0.726427c-0.000571,-0.137062 0.150768,-0.355789 0.274695,-0.391197c0.118216,-0.033694 0.326664,0.091374 0.428889,0.205593c0.097656,0.108507 0.114218,0.292969 0.158763,0.446022c2.527647,8.694283 5.061005,17.386282 7.576088,26.084562c0.561382,1.941708 1.058802,3.902262 1.585919,5.854821c0.082808,0.006853 0.165616,0.013706 0.248424,0.02113c0.038834,-0.250138 0.157621,-0.51855 0.103938,-0.746415c-0.396337,-1.687573 -0.825226,-3.36715 -1.246691,-5.04787c-3.142711,-12.546289 -6.284281,-25.092578 -9.429848,-37.637154c-0.493993,-1.968549 -1.007404,-3.93253 -1.515103,-5.898224c-0.09423,-0.364356 -0.150768,-0.741847 0.378062,-0.697873c0.155337,0.013135 0.34037,0.33523 0.416325,0.549389c1.145608,3.223235 2.379163,6.419058 3.38828,9.683983c3.062188,9.90214 5.407657,19.988741 7.597789,30.113035c0.593363,2.742948 1.151319,5.49332 1.748679,8.234555c0.044545,0.207877 0.278121,0.537396 0.418038,0.534541c0.907463,-0.019417 1.812641,-0.115931 2.782353,-0.191886c-0.032552,-0.288401 -0.051969,-0.510555 -0.08395,-0.729854c-0.522548,-3.567603 -1.083359,-7.130066 -1.562504,-10.70338c-0.855494,-6.38365 -0.754411,-12.799853 -0.651043,-19.219482c0.035979,-2.248955 -0.146199,-4.514471 -0.41347,-6.750862c-0.545963,-4.575578 -1.242693,-9.133452 -1.825777,-13.705032c-0.25642,-2.011952 -0.387199,-4.039324 -0.584226,-6.155785m3.741214,-1.852047c3.8857,-0.656754 7.717147,-1.370617 11.570866,-1.93771c3.882274,-0.570519 7.779396,-1.058802 11.682229,-1.46599c3.881132,-0.404903 7.773114,-0.753268 11.669665,-0.962859c3.919395,-0.210161 7.851353,-0.315813 11.776459,-0.288401c3.867425,0.026841 7.733138,0.278121 11.738767,0.436884c-0.33009,-0.087948 -0.524832,-0.146199 -0.721858,-0.190744c-7.229436,-1.647596 -14.577087,-2.46654 -21.955006,-3.014216c-7.225438,-0.536825 -14.462298,-0.704155 -21.695731,-0.133064c-2.155867,0.170185 -4.326582,0.386057 -6.438475,0.829224c-2.733811,0.573375 -5.092415,1.866324 -6.562973,4.408248c-0.15705,0.27241 -0.360929,0.561953 -0.618491,0.723572c-0.657325,0.411756 -0.666463,0.955435 -0.445451,1.595056m23.478676,59.8383c0.010851,0.047972 0.021701,0.095943 0.033123,0.143344c0.218728,0 0.438026,0.000571 0.657325,0c4.66581,-0.012564 9.224255,-0.792674 13.721022,-1.970262c7.927308,-2.076485 15.260682,-5.512737 22.184014,-9.846173c4.941647,-3.093027 9.492097,-6.670338 13.185339,-11.231638c0.992555,-1.22556 1.870322,-2.544209 2.800057,-3.820025c-0.053683,-0.042261 -0.107365,-0.085664 -0.161048,-0.128495c-0.165616,0.147341 -0.328377,0.297538 -0.49742,0.440882c-1.585347,1.343776 -3.132432,2.734953 -4.763467,4.019907c-8.843909,6.967876 -18.67352,12.199066 -29.16274,16.176141c-5.711477,2.165004 -11.553162,3.987354 -17.336026,5.966183c-0.222154,0.077097 -0.440311,0.166758 -0.660181,0.250138m59.821167,-36.17973c0.152481,-0.110792 0.218157,-0.138775 0.254706,-0.187889c1.5448,-2.074201 2.92227,-4.243203 3.798323,-6.697179c1.283812,-3.598442 0.680169,-6.922189 -1.516245,-9.976381c-1.725265,-2.39858 -4.125558,-3.964511 -6.740582,-5.231761c-0.688735,-0.333517 -1.397459,-0.626486 -2.097045,-0.93716c6.406494,6.493871 7.935304,14.286402 6.300842,23.03037m-84.102225,-0.261559c0.065104,0.007424 0.129066,0.014848 0.194171,0.021701c0.197026,-2.174142 1.149034,-4.047319 2.203267,-5.997593c0.34037,4.451651 0.59679,8.778804 1.022823,13.089396c0.42432,4.289461 1.018826,8.561219 1.539089,12.840972c0.090803,-0.01028 0.181036,-0.02113 0.271839,-0.030839c-0.127924,-1.449428 -0.241571,-2.899998 -0.386628,-4.347141c-0.430031,-4.291175 -0.867487,-8.580636 -1.311224,-12.870097c-0.431173,-4.174672 -0.831508,-8.352771 -1.322646,-12.520019c-0.430031,-3.6447 -0.97942,-7.275123 -1.453997,-10.914112c-0.213017,-1.629893 -0.189031,-1.632748 -1.836627,-1.238695c-1.081074,0.258704 -1.210141,0.43974 -1.098778,1.529381c0.58651,5.742887 1.16788,11.485774 1.762386,17.227518c0.111363,1.073079 0.276408,2.139876 0.416325,3.209529m8.06437,64.841624c0.412327,4.617267 0.820086,9.175712 1.232985,13.797548c1.011401,-0.298109 1.941708,-0.572804 2.890289,-0.852067c-0.031981,-0.157621 -0.039976,-0.247853 -0.068531,-0.33009c-1.278672,-3.658406 -1.940566,-7.457301 -2.535642,-11.267617c-0.186176,-1.195864 -0.160476,-1.199861 -1.519101,-1.347774m-19.186359,-67.800445c-0.063962,0.012564 -0.127353,0.025128 -0.191315,0.038263c2.894287,11.479492 5.788574,22.959555 8.682861,34.439617c0.061107,-0.015419 0.122784,-0.03141 0.183891,-0.046258c-2.424851,-11.594852 -5.003325,-23.15087 -8.675437,-34.431622m11.704501,46.442228c0.850925,-0.267841 1.613902,-0.48714 2.356891,-0.75955c0.145628,-0.054254 0.320953,-0.328948 0.302107,-0.480287c-0.107936,-0.873197 -0.269555,-1.740113 -0.427176,-2.692121c-0.993127,0.162761 -1.922291,0.314671 -2.909707,0.47629c0.233005,1.186726 0.446593,2.274083 0.677885,3.455669m75.337127,-67.364703c-3.643558,-1.512819 -7.501846,-2.142732 -11.362418,-2.762365c-0.014848,0.059393 -0.029697,0.118787 -0.044545,0.178751c3.802321,0.861776 7.604642,1.72298 11.406963,2.583614m7.615493,25.841849c-0.049685,-0.042832 -0.099941,-0.086806 -0.149626,-0.129638c-1.72812,1.901732 -3.457382,3.802892 -5.185502,5.704053l0.152481,0.134206c1.802933,-1.836056 3.63956,-3.642416 5.182647,-5.708621m-85.432866,38.281915c0.301536,1.325501 0.573946,2.525363 0.846927,3.724653c0.463726,-0.61792 -0.214159,-3.509352 -0.846927,-3.724653m19.007608,-1.987395c0.020559,0.066247 0.041119,0.132493 0.061107,0.19874c1.667584,-0.515695 3.335169,-1.03139 5.002182,-1.547084c-0.032552,-0.102796 -0.064533,-0.203879 -0.096514,-0.306676c-1.655592,0.552245 -3.311183,1.103347 -4.966775,1.65502m-18.32801,1.687002c0.081095,-0.009709 0.161619,-0.018846 0.242142,-0.027983c-0.233576,-1.09992 -0.467152,-2.199841 -0.701299,-3.299761c-0.084521,0.018275 -0.169043,0.035979 -0.254135,0.053683c0.238145,1.091354 0.475718,2.182137 0.713292,3.274062m0.725856,4.955353c-0.113647,0.020559 -0.226723,0.042832 -0.34037,0.064533c0.233005,1.036529 0.46601,2.07363 0.699015,3.111301c0.053683,-0.01028 0.107936,-0.019988 0.161619,-0.030268c-0.17304,-1.047951 -0.346652,-2.097045 -0.520264,-3.145567m-0.099941,-5.108405c0.065104,-0.006853 0.129638,-0.013706 0.194742,-0.02113c-0.224439,-1.103918 -0.448877,-2.207265 -0.673316,-3.311183c-0.053111,0.011422 -0.106794,0.022273 -0.159905,0.033123l0.638479,3.29919zm-2.086765,-1.949703c-0.101654,0.018275 -0.203308,0.03655 -0.304962,0.055967c0.132493,0.572804 0.264986,1.145608 0.396908,1.71784c0.092517,-0.019988 0.185033,-0.041119 0.276979,-0.062249c-0.122784,-0.571091 -0.24614,-1.141039 -0.368925,-1.711558" fill="#7B1A3C" clip-path="url(#SVGID_2_)"/>
  </g>
 </g>
</svg>