<svg width="230" height="230" xmlns="http://www.w3.org/2000/svg">
 <style type="text/css">
  .st0{fill:#7f2346;}
	.st1{fill:#4e748b;}
  .st2{fill:#7f2346;stroke:#7f2346;stroke-width:1.4169;stroke-miterlimit:22.9256;}
	.st3{fill:#7f2346;stroke:#7f2346;stroke-width:3.0607;stroke-miterlimit:22.9256;}</style>
 <g>
   <polygon points="39.81920623779297,6.126498699188232 124.11920166015625,6.126498699188232 124.11920166015625,29.32649803161621 70.11920928955078,29.32649803161621 70.11920928955078,38.326499938964844 114.71920776367188,38.326499938964844 114.71920776367188,59.726497650146484 70.11920928955078,59.726497650146484 70.11920928955078,68.92649841308594 124.51921081542969,68.92649841308594 124.51921081542969,92.42649841308594 39.81920623779297,92.42649841308594 " class="st1"/>
   <path d="m137.219208,106.826498l29.8,0l27.8,47l0.7,0c-0.4,-2.1 -0.9,-4.3 -1.2,-6.5c-0.7,-5 -1.2,-10.1 -1.2,-15.1l0,-25.4l29.6,0l0,84.8l-29.6,0l-27.3,-44.5l-0.5,0c1,5.8 1.5,11.4 1.5,17l0,27.5l-29.6,0l0,-84.8z" class="st1"/>
   <polygon points="222.71920776367188,5.9264984130859375 197.3192138671875,5.9264984130859375 222.71920776367188,77.22650146484375 " class="st0"/>
   <path d="m182.419208,45.626498c-0.6,-2.4 -2,-10.9 -2,-10.9l-1.2,0c0,0 -1.5,8.5 -2,10.9c-0.5,2.4 -4.4,16 -4.4,16l14.1,0c-0.1,0 -4,-13.6 -4.5,-16z" class="st0"/>
   <polygon points="136.91920471191406,5.9264984130859375 136.91920471191406,77.22650146484375 161.61920166015625,5.9264984130859375 " class="st0"/>
   <polygon points="191.8192138671875,81.32649993896484 167.8192138671875,81.32649993896484 164.61920166015625,93.02649688720703 195.21920776367188,93.02649688720703 " class="st0"/>
   <path d="m50.419208,199.726498c-2.1,-11.2 -4.3,-23.7 -6.2,-37.2c-0.6,-3.8 -0.9,-8.6 -0.9,-14.4c0,-1.4 0.1,-3 0.1,-5.1c0.3,-6.3 0.2,-6.3 2.5,-10.7c0,0 0.9,25.4 5.7,37.7c3.8,9.8 13.1,1.3 13,4.4c-0.1,4.4 0,11 -0.1,19.8l-2.1,0l-1.1,-6.6c-0.4,-2.2 -0.8,-4.4 -1,-6.6l-2.3,0c-0.1,0.9 -0.1,1.8 -0.1,2.7c0,1.6 0.3,4 0.8,7.3c0.4,3.3 0.6,5.7 0.6,7.3c0,0.6 0,1.3 -0.1,1.8l-6.5,0c-0.8,-0.1 -1.5,-0.3 -2.3,-0.4z" class="st2"/>
   <path d="m58.419208,172.626498c5.4,0.5 9.4,0.6 12,0.4c8.4,-0.7 16.8,-3.3 25.3,-7.8c12.9,-6.8 22.3,-15.5 24.2,-26.2c0.3,-1.5 0.5,-3.1 0.5,-4.6c0,0 0,-0.8 0,-1.7c-0.1,-0.9 -0.1,-1.8 -0.3,-2.6c-0.1,-0.8 -0.3,-1.6 -0.6,-2.8c-0.3,-1.1 -0.7,-2.2 -1,-2.7c-0.5,-1 -1.1,-2.2 -2,-3.3c-0.6,-0.8 -1.3,-1.5 -2.1,-2.3c-1.3,-1.3 -2.9,-2.4 -4.4,-3.4c-2.8,-1.7 -5.4,-2.6 -9,-3.5c-3.1,-0.8 -9.7,-2 -13.2,-2.4s-8.5,-0.9 -11.7,-1.1c-3.8,-0.2 -8.3,-0.4 -12.5,-0.3c-3.6,0.1 -6.8,0.3 -9.1,0.5c-4.9,0.4 -7.9,2.2 -9.1,4.4c-0.5,0.8 -1,1.3 -1.5,1.6l0.6,6.9c0.6,3 1.8,11.5 3.8,25.3c0.5,3.3 1.4,9.4 2.6,18.4c0.4,4 1,9.3 1.6,15.9c0.7,7.5 1.7,18 2.8,31.5c0.1,1.4 -0.3,2.1 -1.4,2.2c-0.8,0.1 -1.4,-0.4 -1.8,-1.3c-2.1,-5.1 -3.6,-13.4 -4.6,-24.9c-0.3,-3 -0.8,-9.6 -1.5,-19.8c-0.7,-8.2 -1.2,-14.8 -1.7,-19.8l-3.1,-30.5c-0.1,-1.2 0.4,-1.8 1.5,-1.9s1.8,0.5 1.9,1.7c0.4,5 1.5,15.1 3.1,30.5c0.5,5.1 1.1,11.8 1.8,20.1c0.9,10.3 1.5,17 1.8,20c1,10.9 2.2,18.6 3.9,23.2l-3,0.9c-2.1,-23.8 -3.6,-39.5 -4.6,-47.3c-0.5,-3.2 -1.4,-9.3 -2.6,-18.2c-0.6,-3.5 -1.2,-6.9 -1.8,-10.4c-1,-5.3 -1.6,-10.3 -2,-14.9l-0.7,-8.4c-0.1,-1.2 1.5,-1.9 1.5,-1.9c0.5,-0.8 1.3,-1.8 1.8,-2.3s2.7,-2.3 4.3,-3.1c1.8,-0.9 4.2,-1.4 6.5,-1.6c4.9,-0.4 11.4,-0.6 17.8,-0.2c3.1,0.2 6.8,0.5 8.5,0.6s6.7,0.7 9.6,1.1s9.9,1.7 14,3.1c5.1,1.7 10.1,4.7 13.2,7.7c0.5,0.5 1,1.1 1.5,1.8c0.5,0.7 1.1,1.4 1.6,2.2c0.4,0.7 0.8,1.4 1.1,2.2c0.4,0.9 0.8,2 1,2.9c0.3,1.3 0.6,2.5 0.7,3.7c0.1,1 0.2,2.6 0,5.3c0,0.3 -0.1,1.4 -0.2,1.5c-1.7,11.2 -10.6,23 -26,31.3c-8.9,4.7 -17.9,7.5 -27,8.3c-2.6,0.2 -6.6,0.1 -11.9,-0.4s-9.3,-0.6 -11.9,-0.4c-1.2,0.1 -2.6,0.3 -4.2,0.7c-1.3,0.3 -2,-0.2 -2.1,-1.6c-0.1,-1.1 0.6,-1.8 2.2,-2.2c0.2,0 1.3,-0.1 3.5,-0.3l12.4,0.2l0,0zm-26.4,-30.1c0,-0.1 -0.2,-0.2 -0.3,-0.1c-0.1,0.1 -0.2,0.2 -0.1,0.4c4.5,15.4 7.5,26 9,31.9l1.5,8.1c0.6,3.2 1.3,5.8 2.2,7.8c0,0.2 0.1,0.2 0.2,0.2c0.2,0 0.4,-0.1 0.3,-0.4c-0.5,-6.3 -1.8,-13.5 -3.8,-21.8c-2.4,-9.6 -4.2,-16.7 -5.5,-21.4c-2.4,-9.7 -3.6,-14.7 -3.6,-14.8c2.6,6.8 5.4,17.4 8.5,31.7c1.1,5.1 2.9,14.7 5.5,28.9c0.6,3.3 1.7,8.2 3.2,14.9s2.4,11.5 2.7,14.3c0,0.5 0,0.8 -0.2,0.9c-0.8,-0.4 -1.5,-1 -2.1,-1.6c-5.8,-6.2 -10.5,-11.8 -14,-16.8c-7.5,-10.7 -13,-19.2 -16.6,-25.5c-6.6,-11.4 -10.2,-20.6 -10.8,-27.6c-1.2,-13.4 5.4,-23.2 19.6,-29.5c9.5,-4.2 24,-7.2 43.7,-8.9c11.8,-1 22.5,-0.9 31.9,0.2c15.7,2 23.9,6.9 24.5,14.7c0.4,3.9 -2.4,9.1 -8.4,15.4c-9.1,9.7 -21.5,17.5 -37.4,23.6l-25.1,8.5c-15.2,5.2 -25.9,8.3 -32.1,9.5c-0.2,0 -0.3,0.1 -0.2,0.3c0,0.3 0.1,0.3 0.3,0.2c5,-0.9 10.6,-2.2 16.5,-4.1l15.8,-5.4c13.8,-4.7 22.2,-7.5 25,-8.5c15.7,-6 28.2,-13.9 37.5,-23.7c6.1,-6.4 8.9,-11.7 8.6,-15.7c-0.7,-8 -8.9,-13.1 -24.7,-15.2c-9.7,-1.2 -20.5,-1.3 -32.4,-0.3c-19.7,1.7 -34.4,4.7 -43.9,8.9c-14.5,6.4 -21.1,16.5 -19.9,30.2c0.6,7.1 4.2,16.3 10.8,27.8c3.5,6.1 9.1,14.6 16.8,25.6c3.9,5.6 8.6,11.3 13.9,17.1c0.8,0.8 1.5,1.4 2.1,1.6c0.9,0.4 1.3,0 1.2,-1.4c-0.3,-2.9 -1.2,-7.7 -2.7,-14.3c-1.9,-8.4 -3.1,-13.4 -3.4,-15c-4.6,-25.4 -8.9,-44.6 -12.9,-57.6c-1.2,-3.8 -2.3,-7 -3.4,-9.5c-0.1,0 -0.2,-0.1 -0.3,0c-0.1,0 -0.2,0.1 -0.2,0.2c2.4,9.3 4.2,16.4 5.3,21.2l5.1,20.4c2.1,7.9 3.4,14.7 4,20.5c-1.5,-6.5 -2.5,-11 -3,-13.4c-2.3,-11.1 -5.4,-21.8 -8.7,-32.5z" class="st3"/>
 </g>
</svg>
