<?xml version="1.0" encoding="UTF-8" standalone="no"?>
<svg
   xmlns:dc="http://purl.org/dc/elements/1.1/"
   xmlns:cc="http://creativecommons.org/ns#"
   xmlns:rdf="http://www.w3.org/1999/02/22-rdf-syntax-ns#"
   xmlns:svg="http://www.w3.org/2000/svg"
   xmlns="http://www.w3.org/2000/svg"
   xmlns:sodipodi="http://sodipodi.sourceforge.net/DTD/sodipodi-0.dtd"
   xmlns:inkscape="http://www.inkscape.org/namespaces/inkscape"
   inkscape:version="1.0 (4035a4fb49, 2020-05-01)"
   sodipodi:docname="partner.svg"
   id="svg198"
   height="238.17999"
   width="238.17999"
   xml:space="preserve"
   version="1.1"><metadata
   id="metadata204"><rdf:RDF><cc:Work
       rdf:about=""><dc:format>image/svg+xml</dc:format><dc:type
         rdf:resource="http://purl.org/dc/dcmitype/StillImage" /><dc:title></dc:title></cc:Work></rdf:RDF></metadata><defs
   id="defs202" /><sodipodi:namedview
   inkscape:pagecheckerboard="false"
   fit-margin-bottom="0"
   fit-margin-right="0"
   fit-margin-left="0"
   fit-margin-top="0"
   inkscape:current-layer="g215"
   inkscape:window-maximized="1"
   inkscape:window-y="-8"
   inkscape:window-x="-8"
   inkscape:cy="33.880926"
   inkscape:cx="182.80821"
   inkscape:zoom="2.1019044"
   showgrid="false"
   id="namedview200"
   inkscape:window-height="1017"
   inkscape:window-width="1920"
   inkscape:pageshadow="2"
   inkscape:pageopacity="0"
   guidetolerance="10"
   gridtolerance="10"
   objecttolerance="10"
   borderopacity="1"
   bordercolor="#666666"
   pagecolor="#ffffff" /><rect
   class=""
   stroke="none"
   fill="none"
   y="-67.955322"
   x="-92.177032"
   height="100%"
   width="100%"
   id="backgroundrect" />
<g
   transform="translate(-92.177032,-67.955322)"
   inkscape:label="hands"
   id="g196"
   class="currentLayer"><title
     id="title182">Layer 1</title><g
     class=""
     id="svg_10">
</g><g
     inkscape:label="circle"
     id="layer1"
     inkscape:groupmode="layer"><circle
       r="119.09"
       cy="187.04532"
       cx="211.26703"
       id="path232"
       style="fill:#f5eee5;fill-opacity:1;fill-rule:evenodd;stroke-width:0.893939" /></g><g
     id="g194"
     transform="rotate(-90,232.16479,205.15449)"
     class=""><g
       transform="matrix(0.40885735,0,0,0.40885735,145.11479,102.36734)"
       id="g227"><g
         id="g215"><g
           class=""
           id="svg_1">
	<g
   id="svg_2">
		<path
   id="svg_3"
   d="m 245.27103,156.76792 c 10.24,10.24 10.24,26.453 0,35.84 -10.24,10.24 -26.453,10.24 -35.84,0 l -84.48,-84.48 -11.947,-11.947005 c -10.24,-10.24 -10.24,-26.453 0,-35.84 10.24,-10.24 26.453,-10.24 35.84,0 l 54.614,54.614005 z"
   style="fill:#ae938d" />
		<path
   id="svg_4"
   d="m 239.29803,78.261915 c 10.24,10.24 10.24,26.453005 0,35.840005 -10.24,10.24 -26.453,10.24 -35.84,0 l -54.613,-54.613005 -11.947,-11.947 c -10.24,-10.24 -10.24,-26.453 0,-35.84 10.24,-10.2399996 26.453,-10.2399996 36.693,0 l 3.413,3.413 z"
   style="fill:#ae938d" />
		<path
   id="svg_5"
   d="m 245.27103,228.44792 c 10.24,10.24 10.24,26.453 0,36.693 -10.24,10.24 -26.453,10.24 -35.84,0 l -38.4,-38.4 -69.973,-69.973 -11.946995,-11.947 c -10.24,-10.24 -10.24,-26.453 0,-36.693 10.24,-10.240005 26.452995,-10.240005 35.839995,0 l 84.48,84.48 z"
   style="fill:#ae938d" />
		<path
   sodipodi:nodetypes="csscccsccscssccc"
   id="svg_6"
   d="m 428.73803,202.84792 c 11.947,15.36 20.48,36.693 20.48,65.707 0,59.733 -68.267,145.067 -68.267,162.133 v 32.85336 c -63.37199,33.78563 -144.69955,33.22909 -204.8,16.86763 v -83.85399 h 51.2 c 8.533,0 17.067,-8.533 17.067,-8.533 l 93.867,-85.333 c 0,0 34.133,-34.133 34.133,-42.667 0,-8.533 0,-8.533 -8.533,-17.067 l -42.667,-42.667 c -17.067,-17.067 -34.133,-25.6 -34.133,-42.667 0,-13.653 12.8,-40.96 25.6,-34.133 0,0 64.853,37.547 85.333,51.2 11.093,7.68 22.187,16.214 30.72,28.16"
   style="fill:#ae938d" />
		<path
   id="svg_7"
   d="m 170.17803,225.88792 c 10.24,10.24 10.24,26.453 0,35.84 -10.24,10.24 -26.453,10.24 -35.84,0 l -20.48,-20.48 -49.493995,-49.493 c -10.24,-10.24 -10.24,-26.453 0,-35.84 10.24,-10.24 26.453,-10.24 35.839995,0 z"
   style="fill:#ae938d" />
	</g>
	<path
   sodipodi:nodetypes="cscscccccccccssccccscssccscsscsscsscsccscc"
   id="svg_8"
   d="m 170.17803,225.88792 38.4,38.4 c 10.24,10.24 26.453,10.24 35.84,0 10.24,-10.24 10.24,-26.453 0,-36.693 l -35.84,-35.84 c 10.24,10.24 26.453,10.24 35.84,0 10.24,-10.24 10.24,-26.453 0,-35.84 l -42.667,-42.667 c 10.24,10.24 26.453,10.24 35.84,0 10.24,-10.24 10.24,-26.453005 0,-35.840005 l -63.147,-63.147 v -93.438849 c 66.62757,-18.608827 134.49056,-16.833099 204.21818,15.709017 l 0.58182,84.557832 c 0.11743,17.066596 51.2,51.2 51.2,136.533005 v 43.52 l -2.56,2.56 c -9.387,-11.947 -20.48,-21.333 -30.72,-28.16 -20.48,-13.653 -85.333,-51.2 -85.333,-51.2 -12.8,-6.827 -25.6,20.48 -25.6,34.133 0,17.067 17.067,25.6 34.133,42.667 l 42.667,42.667 c 8.533,8.533 8.533,8.533 8.533,17.067 0,8.534 -34.133,42.667 -34.133,42.667 l -93.867,85.333 c 0,0 -8.533,8.533 -17.067,8.533 h -51.2 -25.6 c -14.507,0 -25.6,-11.093 -25.6,-25.6 0,-14.507 11.093,-25.6 25.6,-25.6 h -25.6 c -14.507,0 -25.599995,-11.093 -25.599995,-25.6 0,-14.507 11.092995,-25.6 25.599995,-25.6 H 98.497035 c -14.507,0 -25.6,-11.093 -25.6,-25.6 0,-6.827 2.56,-12.8 6.827,-17.067 0,0 6.827,-8.533 19.627,-8.533 h 13.652995 l 0.853,-0.853 20.48,20.48 c 10.24,10.24 26.453,10.24 35.84,0 10.241,-11.094 10.241,-27.308 0.001,-37.548"
   style="fill:#ffd0a1" />
</g><path
           sodipodi:nodetypes="ssscscscscsssccssscsscsssccssssssssscsccssssssccscscscccscscsssssssssccscsccccsccccssscsscccsccsssccsssccssssccsscscssccscsssscsssccccsccssssccssscssssscss"
           class=""
           id="svg_9"
           d="m 380.95103,463.54128 c -2.56,0 -4.267,2.81846 -4.267,0.25846 v -33.11182 c 0,-6.827 6.827,-18.773 19.627,-40.96 19.627,-33.28 48.64,-83.627 48.64,-121.173 0,-51.2 -26.453,-75.093 -49.493,-90.453 -19.627,-12.8 -84.48,-50.347 -85.333,-51.2 -0.853,-0.853 -2.56,-0.853 -5.12,0.853 -7.68,4.267 -13.653,20.48 -13.653,29.867 0,10.24 7.68,17.92 19.627,27.307 4.267,3.413 8.533,7.68 13.653,12.8 l 42.667,42.667 c 9.387,9.387 9.387,10.24 9.387,20.48 0,9.387 -24.747,34.987 -34.987,46.08 l -93.867,85.333 c -0.853,0.853 -10.24,9.387 -19.627,9.387 h -76.8 c -16.213,0 -29.867,-13.653 -29.867,-29.867 0,-8.533 3.413,-16.213 9.387,-21.333 h -5.12 c -16.213,0 -29.866995,-13.653 -29.866995,-29.867 0,-8.533 3.413,-16.213 9.386995,-21.333 h -5.12 c -16.212995,0 -29.866995,-13.653 -29.866995,-29.867 0,-7.68 2.56,-14.507 7.68,-19.627 1.707,-1.707 4.267,-1.707 5.973,0 1.707,1.707 1.707,4.267 0,5.973 -3.413,4.267 -5.12,9.387 -5.12,14.507 0,11.947 9.387,21.333 21.332995,21.333 h 93.867 c 2.56,0 4.267,1.707 4.267,4.267 0,2.56 -1.707,4.267 -4.267,4.267 h -68.267 c -11.947,0 -21.333,9.387 -21.333,21.333 0,11.947 9.387,21.333 21.333,21.333 h 85.333 c 5.12,0 11.947,-5.12 13.653,-7.68 l 59.733,-59.733 c 1.707,-1.707 4.267,-1.707 5.973,0 1.707,1.707 1.707,4.267 0,5.973 l -59.733,59.733 c -0.853,0.853 -10.24,9.387 -20.48,9.387 h -59.733 c -11.947,0 -21.333,9.387 -21.333,21.333 0,11.947 9.387,21.333 21.333,21.333 h 76.8 c 5.12,0 11.947,-5.12 13.653,-7.68 l 93.867,-85.333 c 15.36,-15.36 32.427,-34.987 32.427,-39.253 0,-6.827 0,-6.827 -7.68,-13.653 l -42.667,-42.667 c -4.267,-4.267 -8.533,-8.533 -12.8,-11.947 -11.947,-10.24 -22.187,-19.627 -22.187,-33.28 0,-11.947 7.68,-30.72 17.92,-36.693 4.267,-2.56 9.387,-3.413 13.653,-0.853 2.56,1.707 65.707,38.4 86.187,51.2 24.747,16.213 52.907,42.667 52.907,97.28 0,40.107 -29.013,89.6 -49.493,125.44 -9.387,16.213 -18.773,31.573 -18.773,36.693 v 28.17495 c 0.854,0.853 -0.853,2.97141 -3.413,2.97141 z m -204.8,16.86763 c -2.56,0 -4.267,0.76143 -4.267,-1.79857 l 0,-70.54973 c 0,-2.56 1.707,-5.08981 4.267,-5.08981 2.56,0 4.267,2.52981 4.267,5.08981 l 0,70.13833 c 0,2.56 -1.707,2.20997 -4.267,2.20997 z m 51.2,-203.32099 c -7.68,0 -15.36,-3.413 -21.333,-8.533 l -23.893,-23.893 c 0,7.68 -2.56,15.36 -8.533,21.333 -11.093,11.093 -30.72,11.093 -42.667,0 l -69.972995,-69.973 c -11.947,-11.947 -11.947,-30.72 0,-41.813 5.973,-5.973 13.653,-8.533 21.333,-8.533 -9.387,-11.947 -8.533,-29.013 2.56,-39.253 5.973,-5.973 13.653,-9.387005 21.332995,-8.533005 -4.267,-5.12 -5.973,-11.947 -5.973,-18.773 0,-7.68 3.413,-15.36 8.533,-21.333 5.973,-5.973 13.653,-9.387 21.333,-8.533 -9.387,-11.947 -8.533,-29.013 2.56,-39.2529996 10.24,-10.23999997 26.453,-11.093 38.4,-3.413 V -75.687041 c 0,-2.56 1.707,-2.812462 4.267,-2.812462 2.56,0 4.267,0.252462 4.267,2.812462 v 89.095956 l 61.44,61.44 c 5.973,5.973 8.533,12.8 8.533,21.333 0,7.680005 -3.413,15.360005 -8.533,21.333005 -5.973,5.973 -13.653,8.533 -21.333,8.533 l 27.306,27.307 c 5.973,5.973 8.533,12.8 8.533,21.333 0,7.68 -3.413,15.36 -8.533,21.333 -5.973,5.973 -12.8,8.533 -21.333,8.533 l 21.333,21.333 c 5.973,5.973 8.533,12.8 8.533,21.333 0,7.68 -3.413,15.36 -8.533,21.333 v 0 0 0 c -4.267,5.122 -11.947,8.535 -19.627,8.535 z m -121.173,-172.373 c -5.12,0 -11.092995,1.707 -15.359995,5.973 -8.533,8.533 -8.533,22.187 0,29.867 l 120.319995,120.32 c 7.68,7.68 22.187,7.68 29.867,0 v 0 c 4.267,-4.267 5.973,-9.387 5.973,-15.36 0,-5.973 -2.56,-11.093 -5.973,-15.36 l -121.174,-121.173 c -2.56,-2.56 -7.68,-4.267 -13.653,-4.267 z m -23.892995,48.64 c -5.12,0 -11.093,1.707 -15.36,5.973 -4.267,4.267 -5.973,9.387 -5.973,15.36 0,5.973 2.56,11.093 5.973,15.36 l 69.972995,69.973 c 7.68,7.68 22.187,7.68 29.867,0 8.533,-8.533 8.533,-22.187 0,-29.867 l -69.972995,-69.973 c -3.414,-5.119 -9.387,-6.826 -14.507,-6.826 z m 105.812995,11.947 23.893,23.893 c 7.68,7.68 22.187,7.68 29.867,0 4.267,-4.267 5.973,-9.387 5.973,-15.36 0,-5.973 -2.56,-11.093 -5.973,-15.36 v 0 l -96.427,-96.427005 c -7.68,-7.68 -22.187,-7.68 -29.867,0 -4.267,4.267 -5.973,9.387 -5.973,15.36 0,5.973 2.56,11.093 5.973,15.36 l 11.947,11.947005 v 0 z m -33.28,-157.0140046 c -5.12,0 -11.093,1.707 -15.36,5.9729996 -8.533,8.533 -8.533,22.187 0,29.867 l 66.56,66.560005 c 7.68,7.68 22.187,7.68 29.867,0 4.267,-4.267 5.973,-9.387 5.973,-15.360005 0,-5.973 -2.56,-11.093 -5.973,-15.36 v 0 l -66.56,-66.56 c -3.414,-3.4129996 -9.387,-5.1199996 -14.507,-5.1199996 z m 277.333,153.6000046 c -2.56,0 -4.267,-1.707 -4.267,-4.267 0,-58.027005 -23.893,-92.160005 -38.4,-112.640005 -6.827,-10.24 -12.77817,-17.92004 -12.8,-23.893 l -0.29091,-79.611401 c -0.009,-2.559983 1.707,-4.267 4.267,-4.267 2.56,0 4.25765,1.707017 4.267,4.267 l 0.29091,79.612401 c 0.0156,4.266972 5.12,11.093 11.093,19.627 15.36,21.333 40.107,57.173 40.107,116.907005 0,2.559 -2.56,4.265 -4.267,4.265 z"
           style="fill:#51565f" /></g></g></g></g></svg>
