<svg width="128" height="128" xmlns="http://www.w3.org/2000/svg">

 <g>
  <title>background</title>
  <rect fill="none" id="canvas_background" height="130" width="130" y="-1" x="-1"/>
 </g>
 <g>
  <title>Layer 1</title>
  <g stroke="null" id="Layer_1">
   <g stroke="null" id="svg_1">
    <circle stroke="null" id="svg_2" r="63.803249" fill="#4e748b" cy="63.967184" cx="63.967184"/>
   </g>
   <g stroke="null" id="svg_3" opacity="0.2">
    <g stroke="null" id="svg_4">
     <path stroke="null" id="svg_5" fill="#231F20" d="m95.868808,63.967184c0,-17.619666 -14.281959,-31.901625 -31.901625,-31.901625c-14.949899,0 -27.461317,10.298243 -30.92065,24.177444c-9.580457,1.451524 -16.931787,9.700088 -16.931787,19.68729c0,11.012042 8.926473,19.938515 19.938515,19.938515l15.950812,0c2.203206,0 3.987703,-1.784497 3.987703,-3.987703l0,-10.966183c0,-1.650909 -1.339868,-2.990777 -2.990777,-2.990777l-6.10318,0c-2.932956,0 -3.754422,-2.01379 -1.82238,-4.476197l15.378577,-19.597567c1.932042,-2.462407 5.094291,-2.462407 7.026333,0l15.378577,19.597567c1.932042,2.462407 1.112569,4.476197 -1.82238,4.476197l-6.10318,0c-1.650909,0 -2.990777,1.339868 -2.990777,2.990777l0,10.966183c0,2.203206 1.784497,3.987703 3.987703,3.987703l19.938515,0c8.808836,0 15.950812,-7.141976 15.950812,-15.950812s-7.141976,-15.950812 -15.950812,-15.950812z"/>
    </g>
   </g>
   <g stroke="null" id="svg_6">
    <g stroke="null" id="svg_7">
     <path stroke="null" id="svg_8" fill="#FFFFFF" d="m95.868808,59.979481c0,-17.619666 -14.281959,-31.901625 -31.901625,-31.901625c-14.949899,0 -27.461317,10.298243 -30.92065,24.177444c-9.580457,1.451524 -16.931787,9.700088 -16.931787,19.68729c0,11.012042 8.926473,19.938515 19.938515,19.938515l15.950812,0c2.203206,0 3.987703,-1.784497 3.987703,-3.987703l0,-10.966183c0,-1.650909 -1.339868,-2.990777 -2.990777,-2.990777l-6.10318,0c-2.932956,0 -3.754422,-2.01379 -1.82238,-4.476197l15.378577,-19.597567c1.932042,-2.462407 5.094291,-2.462407 7.026333,0l15.378577,19.597567c1.932042,2.462407 1.112569,4.476197 -1.82238,4.476197l-6.10318,0c-1.650909,0 -2.990777,1.339868 -2.990777,2.990777l0,10.966183c0,2.203206 1.784497,3.987703 3.987703,3.987703l19.938515,0c8.808836,0 15.950812,-7.141976 15.950812,-15.950812s-7.141976,-15.950812 -15.950812,-15.950812z"/>
    </g>
   </g>
  </g>
  <g id="Layer_2"/>
 </g>
</svg>